<svg id="Слой_1" xmlns="http://www.w3.org/2000/svg" width="220" height="80"><style>.st1{fill:none;stroke-width:3}.st1,.st2{stroke:#fff;stroke-miterlimit:10}.st2,.st3{fill:#fff}</style><path class="st1" d="M173.1 66.2c-2.9 2.2-8.7 4.1-10 2.3s.4-5.6 3.4-7.8m36-1.1c2.1 3 4 8.7 2.1 10.1-1.9 1.3-5.6-.5-7.8-3.5"/><path class="st1" d="M165.1 56.2c-2.5-6.3-.7-12.4-.3-13.7.4-1.2.8-2.4 1.4-3.5 1.7-3.8 3.4-6.5 5.7-9.8 6.1-8.7 5-7.1 7.1-10 1.2-1.6 7.4-9.9 8.2-9.4.2.1-.1.9-.5 2.1-.6 2.5-.6 5-.3 7.5.5 2.9 2.5 5.2 6.4 9l7.1 7.1c1.6 1.7 4.7 5.9 5.4 11.8.1 1.2.7 8.1-3.8 14-5.8 7.5-16.8 8.9-24.7 5.9-1.9-.7-8.8-3.7-11.7-11z"/><path class="st2" d="M185.6 54.8c.2.1.4.3.4.6.3.6-1.8 2.7-3.7 2.7-2.4 0-4.3-2.5-3.3-3.3.7-.5 1.5 2.3 3.3 2.3s2.6-2.7 3.3-2.3z"/><path class="st2" d="M191.8 54.8c.2.1.4.3.4.6.3.6-1.8 2.7-3.7 2.7-2.4 0-4.3-2.5-3.3-3.3.7-.5 1.5 2.3 3.3 2.3s2.6-2.7 3.3-2.3z"/><circle class="st3" cx="194.6" cy="48.2" r="3.6"/><circle class="st3" cx="175.2" cy="48.3" r="3.6"/><path class="st3" d="M29.4 36c.8-1.3 2.3-2 3.8-2 2.5 0 4.4 1.9 4.4 4.3v12.4c0 1.7-1.5 3.1-3.3 3.1S31 52.4 31 50.7v-7.2s-2.2 3.3-3.3 4.9c-.4.6-1 .9-1.7.9s-1.3-.3-1.7-.8L21 44v6.7c0 1.7-1.4 3.1-3.3 3.1-1.8 0-3.2-1.3-3.2-3.1V38.3c0-2.4 2-4.3 4.4-4.3 1.5 0 2.9.8 3.8 2l3.3 5.3s.2-.4.7-1.1l2.7-4.2zm29 13.1c.3.5.5 1 .5 1.6 0 1.6-1.3 3.1-3 3.1-1 0-2-.5-2.6-1.3l-3-4.4h-3.5v2.5c0 1.8-1.4 3.2-3.3 3.2-1.8 0-3.3-1.4-3.3-3.2V37.3c0-1.8 1.4-3.2 3.3-3.2h6.7c3.7 0 6 .9 7.4 2.3 1.3 1.2 1.8 2.6 1.8 4.6 0 2.4-1.1 4.2-3 5.5l2 2.6zM50 43.7c1.8 0 2.9-.8 2.9-2.1 0-1.5-1.1-2.1-2.8-2.1h-3.2v4.3l3.1-.1zm26.6-9.6c8.2 0 12.2 3.9 12.2 9.7 0 5.9-4.2 10-12.5 10H72c-1.8 0-3.3-1.4-3.3-3.1V37.2c0-1.7 1.4-3.1 3.3-3.1h4.6zm.1 14.2c3.3 0 5.4-1.3 5.4-4.3 0-3.1-2.1-4.4-5.4-4.4h-1.3v8.7h1.3zm32.5.8c.3.5.5 1 .5 1.6 0 1.6-1.3 3.1-3 3.1-1 0-2-.5-2.6-1.3l-3-4.4h-3.5v2.5c0 1.8-1.4 3.2-3.3 3.2S91 52.4 91 50.6V37.3c0-1.8 1.4-3.2 3.3-3.2h6.7c3.7 0 6 .9 7.4 2.3 1.3 1.2 1.8 2.6 1.8 4.6 0 2.4-1.1 4.2-3 5.5l2 2.6zm-8.5-5.4c1.8 0 2.9-.8 2.9-2.1 0-1.5-1.1-2.1-2.8-2.1h-3.2v4.3l3.1-.1zm10.9.3c0-5.7 4.9-10.2 11.2-10.2S134 38.1 134 44c0 5.7-4.9 10.2-11.2 10.2s-11.2-4.4-11.2-10.2zm15.8 0c0-2.5-1.8-4.7-4.5-4.7-2.8 0-4.5 2.2-4.5 4.7s1.8 4.7 4.6 4.7c2.6 0 4.4-2.2 4.4-4.7zm17.9-9.9c5.4 0 9.1 2.3 9.1 7s-3.8 7.3-9.3 7.3h-2.4v2.3c0 1.8-1.5 3.2-3.3 3.2s-3.3-1.4-3.3-3.2V37.3c0-1.8 1.5-3.2 3.3-3.2h5.9zm-.5 9.8c1.9 0 3.2-.8 3.2-2.4 0-1.6-1.1-2.4-3.1-2.4h-2.1v4.8h2z"/></svg>