<?xml version="1.0" encoding="utf-8"?>
<!-- Generator: Adobe Illustrator 21.0.1, SVG Export Plug-In . SVG Version: 6.00 Build 0)  -->
<svg version="1.1" id="Слой_1" xmlns="http://www.w3.org/2000/svg" xmlns:xlink="http://www.w3.org/1999/xlink" x="0px" y="0px"
	 width="220px" height="80px" viewBox="0 0 220 80" style="enable-background:new 0 0 220 80;" xml:space="preserve">
<style type="text/css">
	.st0{display:none;}
	.st1{fill:none;stroke:#FFFFFF;stroke-width:3;stroke-miterlimit:10;}
	.st2{fill:#FFFFFF;stroke:#FFFFFF;stroke-miterlimit:10;}
	.st3{fill:#FFFFFF;}
</style>
<rect class="st0" width="220" height="80"/>
<path class="st1" d="M173.1,66.2c-2.9,2.2-8.7,4.1-10,2.3s0.4-5.6,3.4-7.8"/>
<path class="st1" d="M202.5,59.6c2.1,3,4,8.7,2.1,10.1c-1.9,1.3-5.6-0.5-7.8-3.5"/>
<path class="st1" d="M165.1,56.2c-2.5-6.3-0.7-12.4-0.3-13.7c0.4-1.2,0.8-2.4,1.4-3.5c1.7-3.8,3.4-6.5,5.7-9.8c6.1-8.7,5-7.1,7.1-10
	c1.2-1.6,7.4-9.9,8.2-9.4c0.2,0.1-0.1,0.9-0.5,2.1c-0.6,2.5-0.6,5-0.3,7.5c0.5,2.9,2.5,5.2,6.4,9c4.3,4.3,5.2,5.2,7.1,7.1
	c1.6,1.7,4.7,5.9,5.4,11.8c0.1,1.2,0.7,8.1-3.8,14c-5.8,7.5-16.8,8.9-24.7,5.9C174.9,66.5,168,63.5,165.1,56.2z"/>
<path class="st2" d="M185.6,54.8c0.2,0.1,0.4,0.3,0.4,0.6c0.3,0.6-1.8,2.7-3.7,2.7c-2.4,0-4.3-2.5-3.3-3.3c0.7-0.5,1.5,2.3,3.3,2.3
	S184.9,54.4,185.6,54.8z"/>
<path class="st2" d="M191.8,54.8c0.2,0.1,0.4,0.3,0.4,0.6c0.3,0.6-1.8,2.7-3.7,2.7c-2.4,0-4.3-2.5-3.3-3.3c0.7-0.5,1.5,2.3,3.3,2.3
	S191.1,54.4,191.8,54.8z"/>
<circle class="st3" cx="194.6" cy="48.2" r="3.6"/>
<circle class="st3" cx="175.2" cy="48.3" r="3.6"/>
<path class="st3" d="M29.4,36c0.8-1.3,2.3-2,3.8-2c2.5,0,4.4,1.9,4.4,4.3v12.4c0,1.7-1.5,3.1-3.3,3.1S31,52.4,31,50.7v-7.2
	c0,0-2.2,3.3-3.3,4.9c-0.4,0.6-1,0.9-1.7,0.9c-0.7,0-1.3-0.3-1.7-0.8L21,44v6.7c0,1.7-1.4,3.1-3.3,3.1c-1.8,0-3.2-1.3-3.2-3.1V38.3
	c0-2.4,2-4.3,4.4-4.3c1.5,0,2.9,0.8,3.8,2l3.3,5.3c0,0,0.2-0.4,0.7-1.1L29.4,36z"/>
<path class="st3" d="M58.4,49.1c0.3,0.5,0.5,1,0.5,1.6c0,1.6-1.3,3.1-3,3.1c-1,0-2-0.5-2.6-1.3l-3-4.4h-3.5v2.5
	c0,1.8-1.4,3.2-3.3,3.2c-1.8,0-3.3-1.4-3.3-3.2V37.3c0-1.8,1.4-3.2,3.3-3.2h6.7c3.7,0,6,0.9,7.4,2.3c1.3,1.2,1.8,2.6,1.8,4.6
	c0,2.4-1.1,4.2-3,5.5L58.4,49.1z M50,43.7c1.8,0,2.9-0.8,2.9-2.1c0-1.5-1.1-2.1-2.8-2.1h-3.2v4.3L50,43.7z"/>
<path class="st3" d="M76.6,34.1c8.2,0,12.2,3.9,12.2,9.7c0,5.9-4.2,10-12.5,10H72c-1.8,0-3.3-1.4-3.3-3.1V37.2
	c0-1.7,1.4-3.1,3.3-3.1H76.6z M76.7,48.3c3.3,0,5.4-1.3,5.4-4.3c0-3.1-2.1-4.4-5.4-4.4h-1.3v8.7H76.7z"/>
<path class="st3" d="M109.2,49.1c0.3,0.5,0.5,1,0.5,1.6c0,1.6-1.3,3.1-3,3.1c-1,0-2-0.5-2.6-1.3l-3-4.4h-3.5v2.5
	c0,1.8-1.4,3.2-3.3,3.2S91,52.4,91,50.6V37.3c0-1.8,1.4-3.2,3.3-3.2h6.7c3.7,0,6,0.9,7.4,2.3c1.3,1.2,1.8,2.6,1.8,4.6
	c0,2.4-1.1,4.2-3,5.5L109.2,49.1z M100.7,43.7c1.8,0,2.9-0.8,2.9-2.1c0-1.5-1.1-2.1-2.8-2.1h-3.2v4.3L100.7,43.7z"/>
<path class="st3" d="M111.6,44c0-5.7,4.9-10.2,11.2-10.2S134,38.1,134,44c0,5.7-4.9,10.2-11.2,10.2S111.6,49.8,111.6,44z M127.4,44
	c0-2.5-1.8-4.7-4.5-4.7c-2.8,0-4.5,2.2-4.5,4.7c0,2.5,1.8,4.7,4.6,4.7C125.6,48.7,127.4,46.5,127.4,44L127.4,44z"/>
<path class="st3" d="M145.3,34.1c5.4,0,9.1,2.3,9.1,7c0,4.7-3.8,7.3-9.3,7.3h-2.4v2.3c0,1.8-1.5,3.2-3.3,3.2s-3.3-1.4-3.3-3.2V37.3
	c0-1.8,1.5-3.2,3.3-3.2L145.3,34.1z M144.8,43.9c1.9,0,3.2-0.8,3.2-2.4c0-1.6-1.1-2.4-3.1-2.4h-2.1v4.8L144.8,43.9z"/>
</svg>
