<svg width="136" height="90" xmlns="http://www.w3.org/2000/svg" xmlns:xlink="http://www.w3.org/1999/xlink"><svg viewBox="-12.76 -12.76 433.87 268.06" width="34" height="21.01" id="arrow" xmlns="http://www.w3.org/2000/svg"><g id="aСлой_2" data-name="Слой 2"><path d="M204.12 0L0 204.12l38.42 38.42 165.99-166 165.82 165.82 38.12-38.12L204.12 0z" id="aСлой_1-2" data-name="Слой 1" fill="#fff"/></g></svg><svg viewBox="-9.09 -9.09 309.11 309.11" width="34" height="34" id="close_icon" y="21.01" xmlns="http://www.w3.org/2000/svg"><defs><style>.bcls-1{fill:#191919}</style></defs><g id="bСлой_2" data-name="Слой 2"><g id="bСлой_1-2" data-name="Слой 1"><path class="bcls-1" transform="rotate(45 145.463 145.473)" d="M111.2-19.98h68.54v330.9H111.2z"/><path class="bcls-1" transform="rotate(-45 145.473 145.463)" d="M111.2-19.98h68.54v330.9H111.2z"/><path d="M52.71 4.24L145.47 97l92.75-92.76 48.47 48.47-92.76 92.76 92.76 92.75-48.47 48.47-92.75-92.76-92.76 92.76-48.47-48.47L97 145.47 4.24 52.71 52.71 4.24z" fill="none" stroke="#666" stroke-miterlimit="10" stroke-width="6"/></g></g></svg><svg viewBox="-10.23 -10.23 347.97 347.55" width="34" height="33.96" id="facebook" x="34" xmlns="http://www.w3.org/2000/svg"><g id="cСлой_2" data-name="Слой 2"><path d="M162.17 327.08h-119A43.17 43.17 0 0 1 0 283.92V43.17A43.17 43.17 0 0 1 43.17 0h241.16a43.17 43.17 0 0 1 43.17 43.17v240.75a43.17 43.17 0 0 1-43.17 43.17H213V209.75h40.71a7.59 7.59 0 0 0 7.54-6.74l4.25-38a6.9 6.9 0 0 0-6.9-6.9h-46.1v-34.76a21.27 21.27 0 0 1 21.27-21.27h23.58a6.31 6.31 0 0 0 6.31-6.31v-33a6.23 6.23 0 0 0-6.23-6.23H220a58.17 58.17 0 0 0-58.17 58.17v43.33h-30.12a6.71 6.71 0 0 0-6.71 6.71v38.35a6.77 6.77 0 0 0 6.77 6.77H162z" id="cСлой_1-2" data-name="Слой 1" fill="#3b579d"/></g></svg><svg id="handler" width="22" height="22" viewBox="-1 -1 22 22" x="102" y="28.01" xmlns="http://www.w3.org/2000/svg"><path d="M3.3 6.1h1.3v7.6H3.3zm13.1 0h1.3v7.6h-1.3zm-3.3-3.7h1.3v15.3h-1.3zm-6.4 0H8v15.3H6.7z" fill="#333"/></svg><svg viewBox="-12.12 -12.12 412.25 412.25" width="34" height="34" id="linkendin" x="68" xmlns="http://www.w3.org/2000/svg"><defs><style>.ecls-2{fill:#fff}</style></defs><g id="eСлой_2" data-name="Слой 2"><g id="eСлой_1-2" data-name="Слой 1"><rect width="388" height="388" rx="50.83" ry="50.83" fill="#0073b0"/><rect class="ecls-2" x="55.5" y="141.75" width="65" height="204" rx="13.44" ry="13.44"/><path class="ecls-2" d="M159.58 141.75h41.5a11.58 11.58 0 0 1 11.58 11.58v13.17l1.46-1.89a65 65 0 0 1 51.43-25.28h7.7c51.42 0 74.25 33.24 74.25 74.25v121.09a10.67 10.67 0 0 1-10.67 10.67h-44.66a10.67 10.67 0 0 1-10.67-10.67V227.75A33.75 33.75 0 0 0 247.75 194 33.75 33.75 0 0 0 214 227.75v107.33a10.67 10.67 0 0 1-10.67 10.67h-44.66A10.67 10.67 0 0 1 148 335.08V153.33a11.58 11.58 0 0 1 11.58-11.58z"/><circle class="ecls-2" cx="88" cy="84.67" r="42"/></g></g></svg><svg viewBox="-26.23 -26.23 621.23 891.82" width="23.68" height="34" id="mr_dot_lemon" y="55.01" xmlns="http://www.w3.org/2000/svg"><defs><style>.fcls-1{fill:#31aadd;stroke-width:16px}.fcls-1,.fcls-2,.fcls-3,.fcls-4{stroke:#000;stroke-miterlimit:10}.fcls-3{fill:#fff}.fcls-4{fill:#48aa4c;stroke-width:7px}</style></defs><g id="fСлой_2" data-name="Слой 2"><g id="fСлой_1-2" data-name="Слой 1"><ellipse class="fcls-1" cx="499.86" cy="603.72" rx="55.06" ry="88.02" transform="rotate(-22.29 499.892 603.736)"/><path class="fcls-1" d="M8.14 465.86C10.87 386.44 53 321.76 82.86 276c9.38-14.39 5-6.18 35.28-48.77 46.61-65.63 60.09-89.59 99.62-143.21 24.12-32.71 58.9-79.63 65.38-75.75 2.67 1.6-1.58 10.58-5.19 26.29-8.93 38.9-4.07 76.16 4.15 100.31 3.78 11.11 10 24.6 35.63 56 53.63 65.83 83.09 76.4 127.38 129.81 23.69 28.57 39.91 48.13 52.49 79.46 35.6 88.59 2 171.37-.69 177.8-32.76 77.35-98 110.73-114.84 119-102.44 50.41-244.86 28-320.31-64.34C8.22 567.09 7.33 489.56 8.14 465.86z"/><circle class="fcls-2" cx="447.9" cy="533.69" r="43.5"/><circle class="fcls-3" cx="454.49" cy="561.64" r="6.59"/><circle class="fcls-3" cx="431.44" cy="516.96" r="17.8"/><circle class="fcls-2" cx="226.14" cy="534.76" r="43.5"/><circle class="fcls-3" cx="232.73" cy="562.7" r="6.59"/><circle class="fcls-3" cx="209.68" cy="518.02" r="17.8"/><path class="fcls-4" d="M205.27 492.77c11.61 15 18.83 30.8 20.6 43 1.26 8.74 1.39 22.53-1 24.38-2 1.51-14.81-1.73-22.3-4.57-11.72-4.43-25.85-15.71-38-31.42-10.48-13.57-17.39-27.74-19.93-39.38-2.28-10.45-3.4-27.47-.78-29.49 3.32-2.56 19.35 3.42 29.25 8.68 10.39 5.55 21.98 15.61 32.16 28.8z"/><path class="fcls-4" d="M257.63 504c-2.45 18.83-8.51 35.08-15.93 45-5.3 7.06-15 16.89-18 16.5-2.45-.32-9.23-11.71-12.52-19-5.14-11.43-7.13-29.4-4.57-49.08 2.21-17 7.37-31.9 13.81-41.92 5.79-9 17.05-21.8 20.34-21.38 4.16.54 11.24 16.11 14.51 26.84 3.45 11.21 4.51 26.52 2.36 43.04z"/><path d="M278.42 739.84c-16.17 44.73-62.18 82.53-108.72 86.42-12.43 1-18.71 12.11-40.12 4.37s-22.43-22.51-32.15-33.28C67.33 764 57.69 708.5 73.18 665.66c12.64-35 44.6-68.67 80.55-84.54 22.3-9.84 55.69-16.18 70-11 14.52 5.25 35.24 30.66 46.1 51.84 18.12 35.34 21.4 82.45 8.59 117.88z" fill="#f8e82f" stroke-width="12" stroke="#000" stroke-miterlimit="10"/><ellipse class="fcls-1" cx="155.45" cy="657.27" rx="55.06" ry="88.02" transform="rotate(-16.01 155.486 657.35)"/><path d="M370.74 605.4a29.7 29.7 0 0 1-.56 5.43A29.34 29.34 0 0 1 359 628a27.33 27.33 0 0 1-16 5.07 27.73 27.73 0 0 1-17.39-6.62 28.23 28.23 0 0 1-9.84-16.12 24.7 24.7 0 0 1-.44-4.93c.39-11.23 10.26-27.67 27.67-27.67a27.67 27.67 0 0 1 27.74 27.67z"/><path d="M342.07 609c-8.27.57-20.61 2-22.5 7.5-2.1 6.12 7.07 12.24 8.48 13.21 8.23 5.66 20.93 6.1 28.59 1.48 2.24-1.35 8.27-5.19 9.94-10.06S356.67 609 342.07 609z" fill="#f6b59d"/></g></g></svg><svg viewBox="-23.48 -23.48 615.72 798.19" width="26.23" height="34" id="mr_dot_simple" x="23.68" y="55.01" xmlns="http://www.w3.org/2000/svg"><defs><style>.gcls-1{fill:#31aadd;stroke-width:16px}.gcls-1,.gcls-2,.gcls-3{stroke:#000;stroke-miterlimit:10}.gcls-3{fill:#fff}</style></defs><g id="gСлой_2" data-name="Слой 2"><g id="gСлой_1-2" data-name="Слой 1"><ellipse class="gcls-1" cx="499.86" cy="603.72" rx="55.06" ry="88.02" transform="rotate(-22.29 499.892 603.736)"/><path class="gcls-1" d="M8.14 465.86C10.87 386.44 53 321.76 82.86 276c9.38-14.39 5-6.18 35.28-48.77 46.61-65.63 60.09-89.59 99.62-143.21 24.12-32.71 58.9-79.63 65.38-75.75 2.67 1.6-1.58 10.58-5.19 26.29-8.93 38.9-4.07 76.16 4.15 100.31 3.78 11.11 10 24.6 35.63 56 53.63 65.83 83.09 76.4 127.38 129.81 23.69 28.57 39.91 48.13 52.49 79.46 35.6 88.59 2 171.37-.69 177.8-32.76 77.35-98 110.73-114.84 119-102.44 50.41-244.86 28-320.31-64.34C8.22 567.09 7.33 489.56 8.14 465.86z"/><circle class="gcls-2" cx="447.9" cy="533.69" r="43.5"/><circle class="gcls-3" cx="454.49" cy="561.64" r="6.59"/><circle class="gcls-3" cx="431.44" cy="516.96" r="17.8"/><circle class="gcls-2" cx="226.14" cy="534.76" r="43.5"/><circle class="gcls-3" cx="232.73" cy="562.7" r="6.59"/><circle class="gcls-3" cx="209.68" cy="518.02" r="17.8"/><ellipse class="gcls-1" cx="155.45" cy="657.27" rx="55.06" ry="88.02" transform="rotate(-16.01 155.486 657.35)"/><path class="gcls-2" d="M339 582.63c2.16 1.31 2.76 3.2 3.66 4.92 2.76 5.28-14.95 22.78-31.37 22.78-20.74 0-36.69-20.92-27.71-27.71 5.85-4.43 12.41 19.69 27.71 19.69s22.04-23.08 27.71-19.68z"/><path class="gcls-2" d="M391.46 582.63c2.16 1.31 2.76 3.2 3.66 4.92 2.76 5.28-14.95 22.78-31.37 22.78-20.74 0-36.69-20.92-27.71-27.71 5.85-4.43 12.41 19.69 27.71 19.69s22.08-23.08 27.71-19.68z"/></g></g></svg><svg viewBox="-25.81 -25.81 622.59 877.69" width="24.12" height="34" id="mr_dot_simple_water_melon" x="49.91" y="55.01" xmlns="http://www.w3.org/2000/svg"><defs><style>.hcls-1{fill:#31aadd;stroke-width:16px}.hcls-1,.hcls-2,.hcls-3{stroke:#000;stroke-miterlimit:10}.hcls-3{fill:#fff}.hcls-7{fill:#333}</style></defs><g id="hСлой_2" data-name="Слой 2"><g id="hСлой_1-2" data-name="Слой 1"><path class="hcls-1" d="M280.91 8.19c-9.47-6.17-54.29 142.2-68 164-23.06 36.55-48.59 79.2-86.52 126.52C95.63 337 77.3 368.24 56.68 414.44c-6.93 15.52-12.17 27.28-16.85 42.7-4.53 14.94-27.07 89.18 3.37 166.29 35.21 89.2 119 125.67 142.7 134.83 96.64 37.31 229.47 20 300.56-71.35 55.69-71.57 48.13-156 46.63-170.22-7.61-72.08-45.27-123.67-65.17-143.82-23.27-23.57-33.9-33.6-86.82-86.52C333.78 239 309.67 212 303.87 176.24z"/><path class="hcls-2" d="M446.12 590.55c0 24-19.47 9.64-43.5 9.64s-43.5 14.38-43.5-9.64a43.5 43.5 0 0 1 87 0z"/><circle class="hcls-3" cx="436.22" cy="593.17" r="6.59"/><circle class="hcls-3" cx="387.52" cy="575.37" r="17.8"/><path class="hcls-2" d="M187.52 590.55c0 24-19.47 9.64-43.5 9.64s-43.5 14.38-43.5-9.64a43.5 43.5 0 0 1 87 0z"/><circle class="hcls-3" cx="177.62" cy="593.17" r="6.59"/><circle class="hcls-3" cx="128.92" cy="575.37" r="17.8"/><path d="M97.17 679.17c4.83 23.18 19.43 75.4 65.7 108.83a159.77 159.77 0 0 0 35.07 18.89c56.13 22.8 103.14 15.17 121 11.21 27-6 80-19.73 115.47-63.37 23.66-29.09 31.32-60.09 34.16-77.34l-112.14-2.17-87.49-5a101.58 101.58 0 0 0-15.65.32l-49.64 4.87q-4.3-.24-8.61-.07z" fill="#e42527" stroke-width="7" stroke="#000" stroke-miterlimit="10"/><path d="M100.83 682c1.51 4.86 3.05 9.68 4.87 14.38a149.55 149.55 0 0 0 21.63 39c12.05 15.58 27.16 28.58 43.58 39.07a155.36 155.36 0 0 0 25.95 13.07c2.27.91 4.64 1.79 6.91 2.64s4.61 1.65 6.92 2.46c4.65 1.51 9.33 2.95 14.06 4.14a206.21 206.21 0 0 0 28.74 5.38 198.83 198.83 0 0 0 29.15 1.3 187.4 187.4 0 0 0 29-2.92c2.4-.43 4.73-.88 7.17-1.41s4.86-1.06 7.27-1.62q7.23-1.69 14.33-3.71a218.49 218.49 0 0 0 54-22.83 165.37 165.37 0 0 0 23.56-17.3c3.68-3.22 7.16-6.65 10.51-10.22l2.48-2.71 2.45-2.8c1.67-1.85 3.25-3.76 4.82-5.68s3.05-3.9 4.62-5.83l2.2-3 1.1-1.5 1-1.53a118.38 118.38 0 0 0 7.72-12.67c4.73-8.72 7.81-18.34 10.38-28.19a130.19 130.19 0 0 1-1.79 15.22 100.72 100.72 0 0 1-4.07 15 109.29 109.29 0 0 1-6.39 14.15l-.9 1.73-1 1.69-1.93 3.38-2 3.31q-1 1.66-2.11 3.27c-1.43 2.16-2.87 4.31-4.39 6.4l-2.27 3.15-2.4 3.09a145 145 0 0 1-10.44 11.77c-3.7 3.71-7.56 7.32-11.56 10.64s-8.27 6.49-12.6 9.46c-17.38 11.85-36.76 20.41-56.62 26.6-5 1.54-10 2.91-15 4.19q-3.76.95-7.52 1.82c-2.5.59-5.13 1.16-7.71 1.65a201.53 201.53 0 0 1-31.42 3.35 213 213 0 0 1-31.49-1.59 215.34 215.34 0 0 1-30.83-6.37c-5-1.43-10-3.11-14.94-4.88s-9.78-3.79-14.49-5.9a156 156 0 0 1-27.58-15.51c-2.16-1.52-4.29-3.12-6.32-4.74s-4.06-3.3-6.06-5c-3.94-3.44-7.77-7-11.42-10.77s-7.06-7.73-10.31-11.83a147.4 147.4 0 0 1-9-12.81 138.77 138.77 0 0 1-7.48-13.7 133.44 133.44 0 0 1-5.79-14.4 150 150 0 0 1-4.09-14.85c-1.09-5.04-1.94-10.04-2.5-15.04z" fill="#68af23"/><path d="M400.23 757.44c0 21.46-52.09 38.86-116.34 38.86s-128-20.85-116.34-38.86c7.19-11.11 52.09 10.3 116.34 10.3s116.34-19.84 116.34-10.3z" fill="#e95e45"/><ellipse class="hcls-7" cx="311.05" cy="731.82" rx="3.6" ry="5.82"/><ellipse class="hcls-7" cx="333.02" cy="731.82" rx="3.6" ry="5.82" transform="rotate(-5.98 332.698 731.23)"/><ellipse class="hcls-7" cx="351.35" cy="731.82" rx="3.6" ry="5.82" transform="rotate(-12.69 351.313 731.767)"/><ellipse class="hcls-7" cx="369.84" cy="726" rx="4.39" ry="7.11" transform="rotate(-12.69 369.805 725.948)"/><ellipse class="hcls-7" cx="287.34" cy="731.82" rx="7.11" ry="4.39" transform="rotate(-82.95 287.36 731.834)"/><ellipse class="hcls-7" cx="278.75" cy="720.23" rx="7.11" ry="4.39" transform="rotate(-82.95 278.769 720.25)"/><ellipse class="hcls-7" cx="320.16" cy="720.31" rx="3.47" ry="5.62" transform="rotate(-5.98 319.861 719.712)"/><ellipse class="hcls-7" cx="301.66" cy="720.23" rx="5.62" ry="3.47" transform="rotate(-87.88 301.658 720.232)"/><ellipse class="hcls-7" cx="251.63" cy="716.88" rx="7.11" ry="4.39" transform="rotate(-82.95 251.648 716.892)"/><ellipse class="hcls-7" cx="263.9" cy="728.92" rx="6.26" ry="3.86" transform="rotate(-82.95 263.921 728.93)"/><ellipse class="hcls-7" cx="243.87" cy="730.84" rx="7.17" ry="4.43" transform="rotate(-82.95 243.886 730.849)"/><ellipse class="hcls-7" cx="224.95" cy="730.17" rx="5.52" ry="3.41" transform="rotate(-82.95 224.97 730.18)"/><ellipse class="hcls-7" cx="209.29" cy="722.79" rx="7.29" ry="4.5" transform="rotate(-82.95 209.31 722.795)"/><ellipse class="hcls-7" cx="192.19" cy="720.23" rx="5.89" ry="3.64" transform="rotate(-82.95 192.209 720.244)"/><ellipse class="hcls-1" cx="87.6" cy="724.22" rx="80.79" ry="50.54" transform="rotate(-12.69 87.588 724.155)"/><ellipse class="hcls-1" cx="485.33" cy="724.93" rx="50.54" ry="80.79" transform="rotate(-69.15 485.33 724.932)"/><path d="M275.08 652.19c-9.79-1.52-16.07-13.38-14-26.48s10.41-12.37 20.21-10.84 17.29 3.26 15.25 16.36-11.67 22.48-21.46 20.96z"/></g></g></svg><svg viewBox="-8.66 -8.66 294.31 242.43" width="34" height="28.01" id="twitter" x="102" xmlns="http://www.w3.org/2000/svg"><g id="iСлой_2" data-name="Слой 2"><path d="M87.11 225.12c104.53 0 161.7-86.6 161.7-161.7q0-3.69-.16-7.35A115.57 115.57 0 0 0 277 26.65a113.32 113.32 0 0 1-32.64 8.95 57 57 0 0 0 25-31.43A114 114 0 0 1 233.27 18a56.88 56.88 0 0 0-96.84 51.83A161.37 161.37 0 0 1 19.28 10.4a56.88 56.88 0 0 0 17.6 75.87 56.41 56.41 0 0 1-25.74-7.11v.73a56.85 56.85 0 0 0 45.58 55.71 56.74 56.74 0 0 1-25.67 1A56.89 56.89 0 0 0 84.14 176a114 114 0 0 1-70.58 24.33A115.43 115.43 0 0 1 0 199.59a160.87 160.87 0 0 0 87.12 25.53" id="iСлой_1-2" data-name="Слой 1" fill="#1da1f2"/></g></svg></svg>