<svg xmlns="http://www.w3.org/2000/svg" viewBox="0 0 568.77 751.24"><defs><style>.cls-1{fill:#31aadd;stroke-width:16px;}.cls-1,.cls-2,.cls-3{stroke:#000;stroke-miterlimit:10;}.cls-3{fill:#fff;}</style></defs><title>classic</title><g id="Слой_2" data-name="Слой 2"><g id="Слой_1-2" data-name="Слой 1"><ellipse class="cls-1" cx="499.86" cy="603.72" rx="55.06" ry="88.02" transform="translate(-191.64 234.72) rotate(-22.29)"/><path class="cls-1" d="M8.14,465.86C10.87,386.44,53,321.76,82.86,276c9.38-14.39,5-6.18,35.28-48.77,46.61-65.63,60.09-89.59,99.62-143.21,24.12-32.71,58.9-79.63,65.38-75.75,2.67,1.6-1.58,10.58-5.19,26.29-8.93,38.9-4.07,76.16,4.15,100.31,3.78,11.11,10,24.6,35.63,56,53.63,65.83,83.09,76.4,127.38,129.81,23.69,28.57,39.91,48.13,52.49,79.46,35.6,88.59,2,171.37-.69,177.8-32.76,77.35-98,110.73-114.84,119-102.44,50.41-244.86,28-320.31-64.34C8.22,567.09,7.33,489.56,8.14,465.86Z"/><circle class="cls-2" cx="447.9" cy="533.69" r="43.5"/><circle class="cls-3" cx="454.49" cy="561.64" r="6.59"/><circle class="cls-3" cx="431.44" cy="516.96" r="17.8"/><circle class="cls-2" cx="226.14" cy="534.76" r="43.5"/><circle class="cls-3" cx="232.73" cy="562.7" r="6.59"/><circle class="cls-3" cx="209.68" cy="518.02" r="17.8"/><ellipse class="cls-1" cx="155.45" cy="657.27" rx="55.06" ry="88.02" transform="translate(-175.27 68.38) rotate(-16.01)"/><path class="cls-2" d="M339,582.63c2.16,1.31,2.76,3.2,3.66,4.92,2.76,5.28-14.95,22.78-31.37,22.78-20.74,0-36.69-20.92-27.71-27.71,5.85-4.43,12.41,19.69,27.71,19.69S333.33,579.23,339,582.63Z"/><path class="cls-2" d="M391.46,582.63c2.16,1.31,2.76,3.2,3.66,4.92,2.76,5.28-14.95,22.78-31.37,22.78-20.74,0-36.69-20.92-27.71-27.71,5.85-4.43,12.41,19.69,27.71,19.69S385.83,579.23,391.46,582.63Z"/></g></g></svg>