<svg xmlns="http://www.w3.org/2000/svg" viewBox="0 0 186.95 120.95"><defs><style>.cls-1{fill:#e6e5e6;}.cls-2{fill:#6fc6d8;}</style></defs><title>jw</title><g id="Слой_2" data-name="Слой 2"><g id="Слой_1-2" data-name="Слой 1"><path class="cls-1" d="M44.3,85.8V83.41H61.09v1.53c0,4.63,2.73,7.61,6.87,7.61,3.94,0,6.67-2.93,6.67-7.61V46H91.41V85.8c0,13.11-9.44,22.27-23.46,22.27S44.3,98.94,44.3,85.8Z"/><path class="cls-1" d="M186.95,46l-18.66,60.5H153.62L142,77.34l-11.38,29.2H116L97,46h17.9l9.81,34.87,14.41-34.57h5.77l14.67,34.6L169.2,46Z"/><path class="cls-1" d="M13.79,4.54a13.74,13.74,0,0,1,.38,4.92c-.53,5-1.67,16-1.68,16.52,0,.7-3,16.34-3.35,17.44C8.93,44,6.39,54.83,5.07,60.49l-.79,3.39s-2.6,11.19-3,16.62-1.09,22-1.09,22L0,114.13a11.79,11.79,0,0,0,.55,2.21A4.44,4.44,0,0,0,2.8,119c2.36,1.17,7.55,2.53,18.56,1.65,11.48-.92,11.42-3.8,11.42-3.8L33.88,97c0-.77,0-1.53,0-2.3-.07-3.9-.32-16.42-.8-20-.28-2.08-1.44-8.25-2.63-14.25-1.22-6.17-2.46-12.18-2.8-13.4C27,44.67,24.44,28.36,24.2,25.84s-.5-18.35-.43-18.79c.11-.69.79-3.29.79-3.29A.83.83,0,0,0,24.95,3c0-.53.27-1.88-.66-2.25a15.91,15.91,0,0,0-4.2-.7c-1.17,0-5.19-.25-6.76.4C12.56.8,13.07,3,13.07,3l.45.47Z"/><path class="cls-2" d="M12.79,1.36A1.47,1.47,0,0,1,14,.2,19.26,19.26,0,0,1,17.23,0c2.86,0,3.31.07,4.59.17a6.39,6.39,0,0,1,2.72.61c.45.27.52,1.17.49,1.73s-.15,1.24-.47,1.24h-11s-1-1-.84-1.88Z"/><polygon class="cls-2" points="32.83 72.66 2.44 72.66 4.83 61.5 30.68 61.5 32.83 72.66"/></g></g></svg>