<svg xmlns="http://www.w3.org/2000/svg" viewBox="0 0 568.77 839.36"><defs><style>.cls-1{fill:#31aadd;stroke-width:16px;}.cls-1,.cls-2,.cls-3,.cls-4,.cls-5{stroke:#000;stroke-miterlimit:10;}.cls-3{fill:#fff;}.cls-4{fill:#48aa4c;stroke-width:7px;}.cls-5{fill:#f8e82f;stroke-width:12px;}.cls-6{fill:#f6b59d;}</style></defs><title>lemon_1</title><g id="Слой_2" data-name="Слой 2"><g id="Слой_1-2" data-name="Слой 1"><ellipse class="cls-1" cx="499.86" cy="603.72" rx="55.06" ry="88.02" transform="translate(-191.64 234.72) rotate(-22.29)"/><path class="cls-1" d="M8.14,465.86C10.87,386.44,53,321.76,82.86,276c9.38-14.39,5-6.18,35.28-48.77,46.61-65.63,60.09-89.59,99.62-143.21,24.12-32.71,58.9-79.63,65.38-75.75,2.67,1.6-1.58,10.58-5.19,26.29-8.93,38.9-4.07,76.16,4.15,100.31,3.78,11.11,10,24.6,35.63,56,53.63,65.83,83.09,76.4,127.38,129.81,23.69,28.57,39.91,48.13,52.49,79.46,35.6,88.59,2,171.37-.69,177.8-32.76,77.35-98,110.73-114.84,119-102.44,50.41-244.86,28-320.31-64.34C8.22,567.09,7.33,489.56,8.14,465.86Z"/><circle class="cls-2" cx="447.9" cy="533.69" r="43.5"/><circle class="cls-3" cx="454.49" cy="561.64" r="6.59"/><circle class="cls-3" cx="431.44" cy="516.96" r="17.8"/><circle class="cls-2" cx="226.14" cy="534.76" r="43.5"/><circle class="cls-3" cx="232.73" cy="562.7" r="6.59"/><circle class="cls-3" cx="209.68" cy="518.02" r="17.8"/><path class="cls-4" d="M205.27,492.77c11.61,15,18.83,30.8,20.6,43,1.26,8.74,1.39,22.53-1,24.38-2,1.51-14.81-1.73-22.3-4.57-11.72-4.43-25.85-15.71-38-31.42-10.48-13.57-17.39-27.74-19.93-39.38-2.28-10.45-3.4-27.47-.78-29.49,3.32-2.56,19.35,3.42,29.25,8.68C183.5,469.52,195.09,479.58,205.27,492.77Z"/><path class="cls-4" d="M257.63,504c-2.45,18.83-8.51,35.08-15.93,45-5.3,7.06-15,16.89-18,16.5-2.45-.32-9.23-11.71-12.52-19-5.14-11.43-7.13-29.4-4.57-49.08,2.21-17,7.37-31.9,13.81-41.92,5.79-9,17.05-21.8,20.34-21.38,4.16.54,11.24,16.11,14.51,26.84C258.72,472.17,259.78,487.48,257.63,504Z"/><path class="cls-5" d="M278.42,739.84c-16.17,44.73-62.18,82.53-108.72,86.42-12.43,1-18.71,12.11-40.12,4.37s-22.43-22.51-32.15-33.28C67.33,764,57.69,708.5,73.18,665.66c12.64-35,44.6-68.67,80.55-84.54,22.3-9.84,55.69-16.18,70-11,14.52,5.25,35.24,30.66,46.1,51.84C287.95,657.3,291.23,704.41,278.42,739.84Z"/><ellipse class="cls-1" cx="155.45" cy="657.27" rx="55.06" ry="88.02" transform="translate(-175.27 68.38) rotate(-16.01)"/><path d="M370.74,605.4a29.7,29.7,0,0,1-.56,5.43A29.34,29.34,0,0,1,359,628a27.33,27.33,0,0,1-16,5.07,27.73,27.73,0,0,1-17.39-6.62,28.23,28.23,0,0,1-9.84-16.12,24.7,24.7,0,0,1-.44-4.93c.39-11.23,10.26-27.67,27.67-27.67A27.67,27.67,0,0,1,370.74,605.4Z"/><path class="cls-6" d="M342.07,609c-8.27.57-20.61,2-22.5,7.5-2.1,6.12,7.07,12.24,8.48,13.21,8.23,5.66,20.93,6.1,28.59,1.48,2.24-1.35,8.27-5.19,9.94-10.06S356.67,609,342.07,609Z"/></g></g></svg>