<svg xmlns="http://www.w3.org/2000/svg" viewBox="0 0 909.88 300.63"><defs><style>.cls-1{fill:none;stroke-width:16px;}.cls-1,.cls-2{stroke:#fff;stroke-miterlimit:10;}.cls-2,.cls-3{fill:#fff;}</style></defs><title>logoMr_drop</title><g id="Слой_2" data-name="Слой 2"><g id="Слой_1-2" data-name="Слой 1"><path class="cls-1" d="M750.9,274.13c-13.88,10.35-41,19.33-47.44,10.64s2.08-26.66,16-37"/><path class="cls-1" d="M887.71,243c10.15,14,18.76,41.23,10,47.58s-26.63-2.45-36.78-16.47"/><path class="cls-1" d="M711.37,226.93c-11.81-29.92-3.07-58.72-1.31-64.52a132.85,132.85,0,0,1,6.54-16.56c8-17.92,16.1-30.7,27-46.31,28.92-41.3,23.51-33.56,33.57-47C783,44.79,812.31,5.71,816,8.11c1,.66-.63,4.05-2.18,10a95.77,95.77,0,0,0-1.31,35.31c2.25,13.88,11.6,24.36,30,42.72,20.53,20.53,24.65,24.42,33.68,33.57,7.72,7.82,22.33,27.83,25.28,55.8.58,5.52,3.52,38.27-18.09,66-27.58,35.45-79.11,42.15-116.61,27.68C757.52,275.69,725,261.54,711.37,226.93Z"/><path class="cls-2" d="M805.66,215.54a3.94,3.94,0,0,1,1.42,1.91c1.07,2.05-5.8,8.84-12.17,8.84-8,0-14.23-8.11-10.75-10.75,2.27-1.72,4.81,7.64,10.75,7.64S803.48,214.22,805.66,215.54Z"/><path class="cls-2" d="M826,215.54a3.94,3.94,0,0,1,1.42,1.91c1.07,2.05-5.8,8.84-12.17,8.84-8,0-14.23-8.11-10.75-10.75,2.27-1.72,4.81,7.64,10.75,7.64S823.84,214.22,826,215.54Z"/><circle class="cls-3" cx="850.54" cy="189.21" r="16.88"/><circle class="cls-3" cx="758.9" cy="189.62" r="16.88"/><path class="cls-3" d="M70.39,131.65A21.41,21.41,0,0,1,88.23,122c11.62,0,21,9.13,21,20.19v58.5c0,8.16-6.91,14.8-15.49,14.8s-15.63-6.64-15.63-14.8V166.78s-10.51,15.35-15.77,23.37a9.51,9.51,0,0,1-8,4.15,10,10,0,0,1-8-4l-15.77-21v31.67c0,8-6.78,14.52-15.35,14.52C6.91,215.46,0,209.24,0,201.08V142.16C0,131,9.68,122,21,122a21.65,21.65,0,0,1,17.84,9.68l15.77,24.89s1.11-1.94,3.32-5.39Z"/><path class="cls-3" d="M207.29,193.47a12.92,12.92,0,0,1,2.49,7.33c0,7.33-6.08,14.66-14.38,14.66a15.07,15.07,0,0,1-12.31-6.22l-14.38-20.74H152.39v12c0,8.3-6.78,14.94-15.49,14.94s-15.63-6.64-15.63-14.94V137.46c0-8.3,6.78-14.94,15.63-14.94h31.53c17.56,0,28.21,4.15,35,10.65,5.95,5.53,8.71,12.17,8.71,21.85,0,11.48-5.39,20.05-14.38,26Zm-39.83-25.86c8.44,0,13.55-3.6,13.55-10.1,0-6.91-5.12-10.1-13.41-10.1H152.39v20.19Z"/><path class="cls-3" d="M293.16,122.53c38.58,0,57.81,18.25,57.81,45.64,0,27.94-19.64,47.3-58.91,47.3H271.59c-8.57,0-15.35-6.5-15.35-14.66V137.19c0-8,6.78-14.66,15.35-14.66Zm.69,67.07c15.77,0,25.58-6.22,25.58-20.47,0-14.52-9.82-20.61-25.58-20.61h-6.36V189.6Z"/><path class="cls-3" d="M447.07,193.47a12.92,12.92,0,0,1,2.49,7.33c0,7.33-6.08,14.66-14.38,14.66a15.07,15.07,0,0,1-12.31-6.22l-14.38-20.74H392.17v12c0,8.3-6.78,14.94-15.49,14.94s-15.63-6.64-15.63-14.94V137.46c0-8.3,6.78-14.94,15.63-14.94h31.53c17.56,0,28.21,4.15,35,10.65,5.95,5.53,8.71,12.17,8.71,21.85,0,11.48-5.39,20.05-14.38,26Zm-39.83-25.86c8.44,0,13.55-3.6,13.55-10.1,0-6.91-5.12-10.1-13.41-10.1H392.17v20.19Z"/><path class="cls-3" d="M458.68,169c0-27,23.09-48.4,53.1-48.4s52.69,21,52.69,48.4c0,27.11-23.09,48.4-53,48.4S458.68,196.51,458.68,169Zm74.26,0c0-11.62-8.3-22.26-21.43-22.26s-21.3,10.51-21.3,22.26,8.3,22.27,21.57,22.27C524.79,191.26,532.95,180.89,532.95,169Z"/><path class="cls-3" d="M617.85,122.53c25.58,0,43.15,11.06,43.15,32.91,0,22.4-17.84,34.43-43.84,34.43H605.68v10.65c0,8.3-6.92,14.94-15.63,14.94s-15.63-6.64-15.63-14.94V137.46c0-8.3,6.91-14.94,15.63-14.94Zm-2.49,46.33c9,0,14.94-3.73,14.94-11.2,0-7.74-5.39-11.48-14.8-11.48h-9.82v22.68Z"/></g></g></svg>