<svg xmlns="http://www.w3.org/2000/svg" viewBox="0 0 229.89 34.27"><defs><style>.cls-1{fill:#e6e5e6;}.cls-2{fill:#31aadd;}</style></defs><title>ss</title><g id="Слой_2" data-name="Слой 2"><g id="Слой_1-2" data-name="Слой 1"><path class="cls-1" d="M2.85,20.4a5,5,0,0,1-1.33-.94A4.87,4.87,0,0,1,.65,18.3,5.45,5.45,0,0,1,.16,17,5.16,5.16,0,0,1,0,15.81a5.35,5.35,0,0,1,.45-2.16,4.39,4.39,0,0,1,.43-.74q.25-.34.54-.69a6.52,6.52,0,0,1-.83-1.7,6.88,6.88,0,0,1-.3-2.12,7.71,7.71,0,0,1,.78-3.52,7.61,7.61,0,0,1,2.12-2.6A9.64,9.64,0,0,1,6.33.66,12.9,12.9,0,0,1,10.16.11,16.27,16.27,0,0,1,16.83,1.4a5.43,5.43,0,0,1,1.29.81,4.87,4.87,0,0,1,1,1.11,5.25,5.25,0,0,1,.61,1.33,5.09,5.09,0,0,1,.21,1.45,4.79,4.79,0,0,1-.11,1,7.71,7.71,0,0,1-.26.94,4.42,4.42,0,0,1-.61,1,7.11,7.11,0,0,1,1.37,2.1,6.77,6.77,0,0,1,.5,2.68,7.38,7.38,0,0,1-3.22,6.36,10.22,10.22,0,0,1-3.27,1.48,14.43,14.43,0,0,1-3.66.48,18.63,18.63,0,0,1-4.12-.46A15.8,15.8,0,0,1,2.85,20.4Zm7.84-1.45a10.54,10.54,0,0,0,2.85-.36,7,7,0,0,0,2.18-1,4.41,4.41,0,0,0,1.4-1.6,4.61,4.61,0,0,0,.49-2.14,3.55,3.55,0,0,0-.49-1.9,4.16,4.16,0,0,0-1.39-1.35,9,9,0,0,0-2.12-.92,24.26,24.26,0,0,0-2.7-.63,5.74,5.74,0,0,1-1.77-.51.78.78,0,0,1-.45-.65A.68.68,0,0,1,9,7.32a1.71,1.71,0,0,1,1-.22,4.42,4.42,0,0,1,1.16.16q.58.16,1.17.36T13.47,8a4.31,4.31,0,0,0,1.14.16,2.16,2.16,0,0,0,1.18-.34,1.93,1.93,0,0,0,.78-.95,1.78,1.78,0,0,0,.13-.74,2,2,0,0,0-1.16-1.77,12.33,12.33,0,0,0-2.42-.74,15,15,0,0,0-2.95-.26,9.72,9.72,0,0,0-2.86.38A6.29,6.29,0,0,0,5.23,4.76,4.42,4.42,0,0,0,3.95,6.37a4.72,4.72,0,0,0-.44,2,3.49,3.49,0,0,0,.54,2A4.45,4.45,0,0,0,5.5,11.73a8.53,8.53,0,0,0,2.11.87q1.2.33,2.52.59a8.63,8.63,0,0,1,1.83.5.74.74,0,0,1,.49.69.65.65,0,0,1-.34.58,2.33,2.33,0,0,1-1.16.21,9.46,9.46,0,0,1-2.52-.33A15.65,15.65,0,0,1,6.12,14a2.24,2.24,0,0,0-.82-.21A2.19,2.19,0,0,0,3.38,15c0,.11-.07.23-.11.37a1.82,1.82,0,0,0-.05.45,2.06,2.06,0,0,0,.24.92,1.74,1.74,0,0,0,.82.77,14.36,14.36,0,0,0,3,1.06A14.63,14.63,0,0,0,10.69,18.95Z"/><path class="cls-1" d="M29.1,16.52a5.39,5.39,0,0,1-.47,2.26,5.65,5.65,0,0,1-3.11,3,5.86,5.86,0,0,1-6.21-1.17,5.55,5.55,0,0,1-1.71-4.05V6.28a5.55,5.55,0,0,1,1.71-4.05,5.88,5.88,0,0,1,8.06,0A5.7,5.7,0,0,1,28.63,4a5.39,5.39,0,0,1,.47,2.26ZM25.89,6.28a2.32,2.32,0,0,0-.2-1,2.43,2.43,0,0,0-.54-.78,2.48,2.48,0,0,0-.8-.51,2.74,2.74,0,0,0-2,0,2.48,2.48,0,0,0-.8.51,2.43,2.43,0,0,0-.54.78,2.33,2.33,0,0,0-.2,1V16.52a2.33,2.33,0,0,0,.2,1,2.42,2.42,0,0,0,.54.78,2.46,2.46,0,0,0,.8.51,2.74,2.74,0,0,0,2,0,2.47,2.47,0,0,0,.8-.51,2.42,2.42,0,0,0,.54-.78,2.32,2.32,0,0,0,.2-1Z"/><path class="cls-1" d="M37.42,11.61h2.14a5.26,5.26,0,0,1,2,.4,5.65,5.65,0,0,1,1.71,1.09,5.3,5.3,0,0,1,1.2,1.66,4.91,4.91,0,0,1,.45,2.1A5.06,5.06,0,0,1,44.49,19a5.37,5.37,0,0,1-1.19,1.68,5.45,5.45,0,0,1-1.72,1.09,5.35,5.35,0,0,1-2,.4H31.64a5.85,5.85,0,0,1-4-1.6,5.55,5.55,0,0,1-1.72-4.05V6.28A5.54,5.54,0,0,1,27.6,2.23a5.85,5.85,0,0,1,4-1.6,5.85,5.85,0,0,1,2.19.42,5.66,5.66,0,0,1,3.11,3,5.38,5.38,0,0,1,.48,2.26ZM34.17,6.28a2.32,2.32,0,0,0-.2-1,2.43,2.43,0,0,0-.54-.78,2.48,2.48,0,0,0-.8-.51,2.74,2.74,0,0,0-2,0,2.48,2.48,0,0,0-.8.51,2.43,2.43,0,0,0-.54.78,2.33,2.33,0,0,0-.2,1V16.52a2.33,2.33,0,0,0,.2,1,2.42,2.42,0,0,0,.54.78,2.46,2.46,0,0,0,.8.51,2.64,2.64,0,0,0,1,.18h7.92a2.09,2.09,0,0,0,1.52-.61,2,2,0,0,0,.62-1.48,1.92,1.92,0,0,0-.62-1.44,2.11,2.11,0,0,0-1.52-.59H34.17Z"/><path class="cls-1" d="M52.56,3.4a5.53,5.53,0,0,1,2.11-2.11A5.83,5.83,0,0,1,57.6.53,5.54,5.54,0,0,1,59.85,1a6.09,6.09,0,0,1,1.85,1.24A5.71,5.71,0,0,1,62.93,4a5.42,5.42,0,0,1,.45,2.19,5.16,5.16,0,0,1-.12,1.13,7.13,7.13,0,0,1-.28,1L58.9,18a6.37,6.37,0,0,1-1.07,1.73A7.1,7.1,0,0,1,56.32,21a7,7,0,0,1-5.84.82A6.73,6.73,0,0,1,48.68,21a7.38,7.38,0,0,1-1.46-1.31,6.44,6.44,0,0,1-1-1.68q-.85-2-1.61-3.8-.32-.79-.67-1.61L43.21,11l-.62-1.46q-.29-.69-.5-1.21t-.26-1a4.67,4.67,0,0,1-.13-1.13A5.51,5.51,0,0,1,42.14,4,5.67,5.67,0,0,1,43.38,2.2a5.95,5.95,0,0,1,7.06-.91A5.52,5.52,0,0,1,52.56,3.4ZM60,7.1a4,4,0,0,0,.13-.42,1.84,1.84,0,0,0,.05-.45A2.27,2.27,0,0,0,60,5.3a2.59,2.59,0,0,0-.54-.79A2.7,2.7,0,0,0,58.6,4a2.45,2.45,0,0,0-1-.21,2.55,2.55,0,0,0-1.49.45,2.38,2.38,0,0,0-.91,1.21l-2.64,7.26L50,5.41a2.53,2.53,0,0,0-2.43-1.66,2.6,2.6,0,0,0-1,.21,2.65,2.65,0,0,0-.83.55,2.58,2.58,0,0,0-.54.79,2.27,2.27,0,0,0-.2.92,2,2,0,0,0,.05.46,3.54,3.54,0,0,0,.13.44q.21.53.5,1.21l.62,1.45.67,1.58L47.55,13l1.58,3.77a3.72,3.72,0,0,0,5.44,1.61,3.53,3.53,0,0,0,1.35-1.61Z"/><path class="cls-1" d="M76.94,12.22a5.52,5.52,0,0,1,2.24,1.86,4.88,4.88,0,0,1,.9,2.92,4.94,4.94,0,0,1-.44,2.08,5.17,5.17,0,0,1-2.85,2.7,5.34,5.34,0,0,1-2,.38H65.44a5.34,5.34,0,0,1-2-.38,5.17,5.17,0,0,1-2.85-2.7A4.94,4.94,0,0,1,60.16,17V5.83a4.94,4.94,0,0,1,.44-2.08,5.22,5.22,0,0,1,1.16-1.64A5.49,5.49,0,0,1,63.43,1a5.16,5.16,0,0,1,2-.4h9.24a5.35,5.35,0,0,1,2,.38,5.26,5.26,0,0,1,2.88,2.73A4.94,4.94,0,0,1,80,5.83a4.8,4.8,0,0,1-.87,2.88,5.52,5.52,0,0,1-2.16,1.82q0,.21,0,.41c0,.13,0,.27,0,.41s0,.29,0,.44S77,12.08,76.94,12.22ZM65.44,3.85A2,2,0,0,0,64,4.43a1.87,1.87,0,0,0-.61,1.4V17A1.84,1.84,0,0,0,64,18.37a2,2,0,0,0,1.45.58h9.37a2,2,0,0,0,1.44-.58,1.93,1.93,0,0,0,0-2.78A2,2,0,0,0,74.81,15H68.37V13.09H72a1.78,1.78,0,0,0,1.29-.51,1.65,1.65,0,0,0,.53-1.23,1.61,1.61,0,0,0-.53-1.21A1.81,1.81,0,0,0,72,9.63H68.37V7.78h6.31a2.08,2.08,0,0,0,1.45-.55,1.81,1.81,0,0,0,.61-1.4,1.87,1.87,0,0,0-.61-1.4,2,2,0,0,0-1.45-.58Z"/><path class="cls-1" d="M87.37,19.68a5.54,5.54,0,0,1-2,1.81,5.89,5.89,0,0,1-6.78-.92,5.55,5.55,0,0,1-1.72-4.05V6.28a5.54,5.54,0,0,1,1.72-4.05,5.85,5.85,0,0,1,4-1.6h5.12a15,15,0,0,1,4.49.62,8.5,8.5,0,0,1,3.4,2,7,7,0,0,1,1.86,2.67A8.9,8.9,0,0,1,98,9.13a8.31,8.31,0,0,1-.34,2.44,7.44,7.44,0,0,1-1,2A6.73,6.73,0,0,1,97.38,15a4.57,4.57,0,0,1,.28,1.6,5.5,5.5,0,0,1-.4,2,5.63,5.63,0,0,1-1.13,1.79,5.83,5.83,0,0,1-1.75,1.28,5.2,5.2,0,0,1-2.28.49,5.68,5.68,0,0,1-2.6-.62,5.6,5.6,0,0,1-2-1.75Zm5.09-6.33a5.61,5.61,0,0,0,1.73-1.77,4.67,4.67,0,0,0,.62-2.45,5.3,5.3,0,0,0-.34-2,4.33,4.33,0,0,0-1.08-1.52,5.86,5.86,0,0,0-2.18-1.27,10.78,10.78,0,0,0-3.5-.48H82.59a2.65,2.65,0,0,0-1,.18,2.48,2.48,0,0,0-.8.51,2.43,2.43,0,0,0-.54.78,2.33,2.33,0,0,0-.2,1V16.52a2.33,2.33,0,0,0,.2,1,2.42,2.42,0,0,0,.54.78,2.46,2.46,0,0,0,.8.51,2.74,2.74,0,0,0,2,0,2.47,2.47,0,0,0,.8-.51,2.42,2.42,0,0,0,.54-.78,2.32,2.32,0,0,0,.2-1v-2h2.64l2.32,3.35a2.48,2.48,0,0,0,.87.75,2.41,2.41,0,0,0,1.13.28,2.15,2.15,0,0,0,.92-.2,2.36,2.36,0,0,0,.74-.54,2.51,2.51,0,0,0,.49-.77,2.29,2.29,0,0,0,.17-.87,1.92,1.92,0,0,0-.09-.58,3,3,0,0,0-.3-.63Zm-7.34-2.16V7.89h2.45a2.84,2.84,0,0,1,1.6.4,1.38,1.38,0,0,1,.59,1.24,1.43,1.43,0,0,1-.59,1.23,2.69,2.69,0,0,1-1.62.44Z"/><path class="cls-1" d="M103.35,20.4a5,5,0,0,1-1.33-.94,4.88,4.88,0,0,1-.87-1.16,5.45,5.45,0,0,1-.49-1.27,5.16,5.16,0,0,1-.16-1.23,5.36,5.36,0,0,1,.45-2.16,4.43,4.43,0,0,1,.43-.74q.25-.34.54-.69a6.52,6.52,0,0,1-.83-1.7,6.88,6.88,0,0,1-.3-2.12,7.72,7.72,0,0,1,.78-3.52,7.61,7.61,0,0,1,2.12-2.6A9.64,9.64,0,0,1,106.84.66a12.9,12.9,0,0,1,3.83-.55,16.28,16.28,0,0,1,6.68,1.29,5.44,5.44,0,0,1,1.29.81,4.87,4.87,0,0,1,1,1.11,5.27,5.27,0,0,1,.61,1.33,5.09,5.09,0,0,1,.21,1.45,4.79,4.79,0,0,1-.11,1,7.71,7.71,0,0,1-.26.94,4.44,4.44,0,0,1-.61,1,7.09,7.09,0,0,1,1.37,2.1,6.77,6.77,0,0,1,.5,2.68,7.38,7.38,0,0,1-3.22,6.36,10.22,10.22,0,0,1-3.27,1.48,14.43,14.43,0,0,1-3.66.48,18.63,18.63,0,0,1-4.12-.46A15.8,15.8,0,0,1,103.35,20.4Zm7.84-1.45a10.53,10.53,0,0,0,2.85-.36,7,7,0,0,0,2.18-1,4.41,4.41,0,0,0,1.4-1.6,4.61,4.61,0,0,0,.49-2.14,3.55,3.55,0,0,0-.49-1.9,4.15,4.15,0,0,0-1.38-1.35,9,9,0,0,0-2.12-.92,24.24,24.24,0,0,0-2.71-.63,5.74,5.74,0,0,1-1.77-.51.78.78,0,0,1-.45-.65.68.68,0,0,1,.3-.57,1.71,1.71,0,0,1,1-.22,4.42,4.42,0,0,1,1.16.16q.58.16,1.17.36T114,8a4.32,4.32,0,0,0,1.14.16,2.16,2.16,0,0,0,1.18-.34,1.93,1.93,0,0,0,.78-.95,1.79,1.79,0,0,0,.13-.74A2,2,0,0,0,116,4.33a12.32,12.32,0,0,0-2.42-.74,15,15,0,0,0-2.95-.26,9.72,9.72,0,0,0-2.86.38,6.3,6.3,0,0,0-2.09,1.06,4.43,4.43,0,0,0-1.28,1.61,4.72,4.72,0,0,0-.44,2,3.49,3.49,0,0,0,.54,2A4.46,4.46,0,0,0,106,11.73a8.54,8.54,0,0,0,2.11.87q1.2.33,2.52.59a8.62,8.62,0,0,1,1.83.5.74.74,0,0,1,.49.69.65.65,0,0,1-.34.58,2.34,2.34,0,0,1-1.16.21,9.45,9.45,0,0,1-2.52-.33,15.67,15.67,0,0,1-2.31-.83,2.23,2.23,0,0,0-.82-.21A2.19,2.19,0,0,0,103.88,15c0,.11-.07.23-.11.37a1.84,1.84,0,0,0-.05.45,2.06,2.06,0,0,0,.24.92,1.75,1.75,0,0,0,.82.77,14.37,14.37,0,0,0,3,1.06A14.63,14.63,0,0,0,111.19,18.95Z"/><path class="cls-1" d="M129.44,18a5.27,5.27,0,0,1-.78,1.7A5.63,5.63,0,0,1,127.37,21a6,6,0,0,1-1.65.86,5.87,5.87,0,0,1-5.9-1.29,5.55,5.55,0,0,1-1.71-4.05V6.28a5.54,5.54,0,0,1,1.71-4.05,5.84,5.84,0,0,1,4-1.6h4.51A14.84,14.84,0,0,1,132,1.1a9.88,9.88,0,0,1,3.28,1.49,7.89,7.89,0,0,1,2.37,2.67,8,8,0,0,1,.91,4,8.48,8.48,0,0,1-.76,3.72,7.85,7.85,0,0,1-2,2.65,9.58,9.58,0,0,1-2.92,1.66A12.85,12.85,0,0,1,129.44,18ZM123.86,3.85a2.65,2.65,0,0,0-1,.18,2.47,2.47,0,0,0-.8.51,2.42,2.42,0,0,0-.54.78,2.33,2.33,0,0,0-.2,1V16.52a2.33,2.33,0,0,0,.2,1,2.41,2.41,0,0,0,.54.78,2.46,2.46,0,0,0,.8.51,2.73,2.73,0,0,0,2,0,2.47,2.47,0,0,0,.8-.52,2.44,2.44,0,0,0,.54-.78,2.34,2.34,0,0,0,.2-1V14.75h1.87a11,11,0,0,0,2.89-.36,6.49,6.49,0,0,0,2.24-1.07,4.9,4.9,0,0,0,1.45-1.75,5.31,5.31,0,0,0,.51-2.38,5.19,5.19,0,0,0-.5-2.34,4.58,4.58,0,0,0-1.43-1.67,6.42,6.42,0,0,0-2.22-1,11.56,11.56,0,0,0-2.85-.33Zm2.53,7.52V7.71H128a2.94,2.94,0,0,1,1.78.46,1.62,1.62,0,0,1,.62,1.39,1.55,1.55,0,0,1-.66,1.37,3.1,3.1,0,0,1-1.77.45Z"/><path class="cls-1" d="M145.89,19.68a5.53,5.53,0,0,1-2,1.81,5.89,5.89,0,0,1-6.78-.92,5.55,5.55,0,0,1-1.71-4.05V6.28a5.55,5.55,0,0,1,1.71-4.05,5.85,5.85,0,0,1,4-1.6h5.12a15,15,0,0,1,4.49.62,8.49,8.49,0,0,1,3.4,2A7,7,0,0,1,156,5.91a8.94,8.94,0,0,1,.57,3.22,8.32,8.32,0,0,1-.34,2.44,7.44,7.44,0,0,1-1,2A6.7,6.7,0,0,1,155.9,15a4.56,4.56,0,0,1,.28,1.6,5.49,5.49,0,0,1-.39,2,5.68,5.68,0,0,1-1.13,1.79,5.84,5.84,0,0,1-1.76,1.28,5.2,5.2,0,0,1-2.28.49,5.68,5.68,0,0,1-2.6-.62,5.6,5.6,0,0,1-2-1.75ZM151,13.35a5.62,5.62,0,0,0,1.73-1.77,4.68,4.68,0,0,0,.62-2.45,5.29,5.29,0,0,0-.34-2,4.31,4.31,0,0,0-1.08-1.52,5.87,5.87,0,0,0-2.18-1.27,10.78,10.78,0,0,0-3.5-.48h-5.12a2.65,2.65,0,0,0-1,.18,2.47,2.47,0,0,0-.8.51,2.42,2.42,0,0,0-.54.78,2.33,2.33,0,0,0-.2,1V16.52a2.33,2.33,0,0,0,.2,1,2.41,2.41,0,0,0,.54.78,2.46,2.46,0,0,0,.8.51,2.74,2.74,0,0,0,2,0,2.49,2.49,0,0,0,.81-.51,2.44,2.44,0,0,0,.54-.78,2.34,2.34,0,0,0,.2-1v-2h2.64l2.32,3.35a2.47,2.47,0,0,0,.87.75,2.4,2.4,0,0,0,1.13.28,2.14,2.14,0,0,0,.92-.2,2.36,2.36,0,0,0,.74-.54,2.53,2.53,0,0,0,.49-.77,2.31,2.31,0,0,0,.17-.87,1.87,1.87,0,0,0-.09-.58,3,3,0,0,0-.3-.63Zm-7.34-2.16V7.89h2.45a2.84,2.84,0,0,1,1.6.4,1.39,1.39,0,0,1,.59,1.24,1.44,1.44,0,0,1-.59,1.23,2.7,2.7,0,0,1-1.62.44Z"/><path class="cls-1" d="M164.84,16.52a5.38,5.38,0,0,1-.47,2.26,5.65,5.65,0,0,1-3.11,3A5.86,5.86,0,0,1,155,20.57a5.56,5.56,0,0,1-1.71-4.05V6.28A5.55,5.55,0,0,1,155,2.23a5.88,5.88,0,0,1,8.06,0A5.71,5.71,0,0,1,164.36,4a5.38,5.38,0,0,1,.47,2.26ZM161.62,6.28a2.33,2.33,0,0,0-.2-1,2.43,2.43,0,0,0-.54-.78,2.49,2.49,0,0,0-.8-.51,2.75,2.75,0,0,0-2,0,2.48,2.48,0,0,0-.8.51,2.43,2.43,0,0,0-.54.78,2.33,2.33,0,0,0-.2,1V16.52a2.33,2.33,0,0,0,.2,1,2.42,2.42,0,0,0,.54.78,2.47,2.47,0,0,0,.8.51,2.75,2.75,0,0,0,2,0,2.48,2.48,0,0,0,.8-.51,2.42,2.42,0,0,0,.54-.78,2.33,2.33,0,0,0,.2-1Z"/><path class="cls-1" d="M172.26,19.47a5.53,5.53,0,0,1-2.08,2,5.86,5.86,0,0,1-6.85-.87,5.58,5.58,0,0,1-1.25-1.78,5.42,5.42,0,0,1-.46-2.24V7a6.06,6.06,0,0,1,.53-2.53,6.41,6.41,0,0,1,1.41-2,6.64,6.64,0,0,1,2.06-1.33A6.42,6.42,0,0,1,168.1.63a6.32,6.32,0,0,1,2.77.61A6.46,6.46,0,0,1,173.06,3l.18.21a5.36,5.36,0,0,1,2-1.86A5.75,5.75,0,0,1,178,.63a5.84,5.84,0,0,1,4,1.6A5.59,5.59,0,0,1,183.29,4a5.42,5.42,0,0,1,.46,2.24V16a5.85,5.85,0,0,1-.51,2.47,6.3,6.3,0,0,1-3.39,3.25,6.23,6.23,0,0,1-2.37.46,6.4,6.4,0,0,1-2.68-.57,6.18,6.18,0,0,1-2.2-1.7ZM170.61,5a3.19,3.19,0,0,0-2.5-1.19,3.25,3.25,0,0,0-1.28.25,3.49,3.49,0,0,0-1,.67A3,3,0,0,0,164.84,7v9.55a2.26,2.26,0,0,0,.74,1.7,2.51,2.51,0,0,0,1.79.7,2.56,2.56,0,0,0,1-.18,2.46,2.46,0,0,0,1.34-1.28,2.24,2.24,0,0,0,.2-.94V11.61l5.23,6.2a3.11,3.11,0,0,0,3.59.9,3.16,3.16,0,0,0,1-.63,2.92,2.92,0,0,0,.65-.94,2.82,2.82,0,0,0,.24-1.15V6.25a2.29,2.29,0,0,0-.71-1.7,2.47,2.47,0,0,0-1.8-.7,2.44,2.44,0,0,0-1.77.7,2.29,2.29,0,0,0-.71,1.7V10.9Z"/><path class="cls-1" d="M201.12,8.34a5.25,5.25,0,0,1,1.19,1.73,5.49,5.49,0,0,1,.42,2.18V17a5.78,5.78,0,0,1-.32,1.86,5,5,0,0,1-1,1.68,4.79,4.79,0,0,1-1.6,1.2,5.23,5.23,0,0,1-2.28.46,4.61,4.61,0,0,1-1-.11,5.58,5.58,0,0,1-.92-.29,11.73,11.73,0,0,1-3.06.4,13.64,13.64,0,0,1-4.51-.75,12,12,0,0,1-3.85-2.18,10.56,10.56,0,0,1-2.69-3.47,10.37,10.37,0,0,1-1-4.63,10.63,10.63,0,0,1,3.54-8.06A11.83,11.83,0,0,1,187.86.8a13,13,0,0,1,4.58-.8,14.09,14.09,0,0,1,3.29.37,13,13,0,0,1,2.89,1.06,5.14,5.14,0,0,1,2.2,2,5.2,5.2,0,0,1,.78,2.77A5.28,5.28,0,0,1,201.12,8.34ZM192.6,18.95a8.38,8.38,0,0,0,1.83-.2,12.09,12.09,0,0,0,1.65-.49,2.52,2.52,0,0,0,.7.49,1.84,1.84,0,0,0,.8.2,1.76,1.76,0,0,0,1.46-.58,2.18,2.18,0,0,0,.46-1.4V12.24a2.26,2.26,0,0,0-.73-1.72A2.53,2.53,0,0,0,197,9.84H194.1a1.53,1.53,0,0,0-1.11.44,1.4,1.4,0,0,0-.45,1A1.47,1.47,0,0,0,193,12.4a1.51,1.51,0,0,0,1.11.45h1.29v1.66a3.6,3.6,0,0,1-1.12.34,8.28,8.28,0,0,1-1.44.13,4,4,0,0,1-2.86-1,3.66,3.66,0,0,1-1.1-2.78,4,4,0,0,1,.28-1.49,3.59,3.59,0,0,1,.77-1.2,3.54,3.54,0,0,1,1.17-.79,3.82,3.82,0,0,1,1.5-.29,5,5,0,0,1,1.17.15,10.82,10.82,0,0,1,1.49.51,2.39,2.39,0,0,0,.46.17,1.83,1.83,0,0,0,.46.07,2.15,2.15,0,0,0,1.17-.34,2.24,2.24,0,0,0,.83-.95,2.09,2.09,0,0,0,.19-.84,2,2,0,0,0-.3-1.07,2.17,2.17,0,0,0-.86-.78A10.49,10.49,0,0,0,195,3.52a11.24,11.24,0,0,0-2.56-.28,9.78,9.78,0,0,0-3.46.59,8.57,8.57,0,0,0-2.74,1.64A7.45,7.45,0,0,0,184.42,8a7.55,7.55,0,0,0-.66,3.17,7.28,7.28,0,0,0,.69,3.18,7.41,7.41,0,0,0,1.89,2.47,8.71,8.71,0,0,0,2.81,1.6A10.31,10.31,0,0,0,192.6,18.95Z"/><path class="cls-1" d="M211.55,30.56a11.22,11.22,0,0,1-2.83-7.66,18.08,18.08,0,0,1,1.54-6.79c4-9.74,7.72-14.42,8.28-14.42.4,0,.71.2,2.57,2.71a51.32,51.32,0,0,1,6.43,10.28c1.24,2.73,1.87,4.09,2.14,6.14a12.06,12.06,0,0,1-.86,7.28A11,11,0,0,1,224.11,33,9.63,9.63,0,0,1,217,34,11.09,11.09,0,0,1,211.55,30.56Z"/><path class="cls-2" d="M225.15,28.47c0,1.61-2.62,2.91-5.84,2.91s-5.84-1.3-5.84-2.91,2.62,0,5.84,0S225.15,26.87,225.15,28.47Z"/></g></g></svg>