<svg xmlns="http://www.w3.org/2000/svg" viewBox="0 0 570.96 826.06"><defs><style>.cls-1{fill:#31aadd;stroke-width:16px;}.cls-1,.cls-2,.cls-3,.cls-4{stroke:#000;stroke-miterlimit:10;}.cls-3{fill:#fff;}.cls-4{fill:#e42527;stroke-width:7px;}.cls-5{fill:#68af23;}.cls-6{fill:#e95e45;}.cls-7{fill:#333;}</style></defs><title>watermelon_1</title><g id="Слой_2" data-name="Слой 2"><g id="Слой_1-2" data-name="Слой 1"><path class="cls-1" d="M280.91,8.19c-9.47-6.17-54.29,142.2-68,164-23.06,36.55-48.59,79.2-86.52,126.52C95.63,337,77.3,368.24,56.68,414.44c-6.93,15.52-12.17,27.28-16.85,42.7-4.53,14.94-27.07,89.18,3.37,166.29,35.21,89.2,119,125.67,142.7,134.83,96.64,37.31,229.47,20,300.56-71.35,55.69-71.57,48.13-156,46.63-170.22-7.61-72.08-45.27-123.67-65.17-143.82-23.27-23.57-33.9-33.6-86.82-86.52C333.78,239,309.67,212,303.87,176.24Z"/><path class="cls-2" d="M446.12,590.55c0,24-19.47,9.64-43.5,9.64s-43.5,14.38-43.5-9.64a43.5,43.5,0,0,1,87,0Z"/><circle class="cls-3" cx="436.22" cy="593.17" r="6.59"/><circle class="cls-3" cx="387.52" cy="575.37" r="17.8"/><path class="cls-2" d="M187.52,590.55c0,24-19.47,9.64-43.5,9.64s-43.5,14.38-43.5-9.64a43.5,43.5,0,0,1,87,0Z"/><circle class="cls-3" cx="177.62" cy="593.17" r="6.59"/><circle class="cls-3" cx="128.92" cy="575.37" r="17.8"/><path class="cls-4" d="M97.17,679.17C102,702.35,116.6,754.57,162.87,788a159.77,159.77,0,0,0,35.07,18.89c56.13,22.8,103.14,15.17,121,11.21,27-6,80-19.73,115.47-63.37,23.66-29.09,31.32-60.09,34.16-77.34l-112.14-2.17-87.49-5a101.58,101.58,0,0,0-15.65.32l-49.64,4.87q-4.3-.24-8.61-.07Z"/><path class="cls-5" d="M100.83,682c1.51,4.86,3.05,9.68,4.87,14.38a149.55,149.55,0,0,0,21.63,39c12.05,15.58,27.16,28.58,43.58,39.07a155.36,155.36,0,0,0,25.95,13.07c2.27.91,4.64,1.79,6.91,2.64s4.61,1.65,6.92,2.46c4.65,1.51,9.33,2.95,14.06,4.14a206.21,206.21,0,0,0,28.74,5.38,198.83,198.83,0,0,0,29.15,1.3,187.4,187.4,0,0,0,29-2.92c2.4-.43,4.73-.88,7.17-1.41s4.86-1.06,7.27-1.62q7.23-1.69,14.33-3.71a218.49,218.49,0,0,0,54-22.83,165.37,165.37,0,0,0,23.56-17.3c3.68-3.22,7.16-6.65,10.51-10.22l2.48-2.71,2.45-2.8c1.67-1.85,3.25-3.76,4.82-5.68s3.05-3.9,4.62-5.83l2.2-3,1.1-1.5,1-1.53a118.38,118.38,0,0,0,7.72-12.67c4.73-8.72,7.81-18.34,10.38-28.19a130.19,130.19,0,0,1-1.79,15.22,100.72,100.72,0,0,1-4.07,15A109.29,109.29,0,0,1,453,723.89l-.9,1.73-1,1.69-1.93,3.38-2,3.31q-1,1.66-2.11,3.27c-1.43,2.16-2.87,4.31-4.39,6.4l-2.27,3.15L436,749.91a145,145,0,0,1-10.44,11.77C421.86,765.39,418,769,414,772.32s-8.27,6.49-12.6,9.46c-17.38,11.85-36.76,20.41-56.62,26.6-5,1.54-10,2.91-15,4.19q-3.76.95-7.52,1.82c-2.5.59-5.13,1.16-7.71,1.65a201.53,201.53,0,0,1-31.42,3.35,213,213,0,0,1-31.49-1.59,215.34,215.34,0,0,1-30.83-6.37c-5-1.43-10-3.11-14.94-4.88s-9.78-3.79-14.49-5.9a156,156,0,0,1-27.58-15.51c-2.16-1.52-4.29-3.12-6.32-4.74s-4.06-3.3-6.06-5c-3.94-3.44-7.77-7-11.42-10.77s-7.06-7.73-10.31-11.83a147.4,147.4,0,0,1-9-12.81,138.77,138.77,0,0,1-7.48-13.7,133.44,133.44,0,0,1-5.79-14.4,150,150,0,0,1-4.09-14.85C102.24,692,101.39,687,100.83,682Z"/><path class="cls-6" d="M400.23,757.44c0,21.46-52.09,38.86-116.34,38.86s-128-20.85-116.34-38.86c7.19-11.11,52.09,10.3,116.34,10.3S400.23,747.9,400.23,757.44Z"/><ellipse class="cls-7" cx="311.05" cy="731.82" rx="3.6" ry="5.82"/><ellipse class="cls-7" cx="333.02" cy="731.82" rx="3.6" ry="5.82" transform="translate(-74.37 38.64) rotate(-5.98)"/><ellipse class="cls-7" cx="351.35" cy="731.82" rx="3.6" ry="5.82" transform="translate(-152.17 95.05) rotate(-12.69)"/><ellipse class="cls-7" cx="369.84" cy="726" rx="4.39" ry="7.11" transform="translate(-150.44 98.97) rotate(-12.69)"/><ellipse class="cls-7" cx="287.34" cy="731.82" rx="7.11" ry="4.39" transform="translate(-474.21 927.2) rotate(-82.95)"/><ellipse class="cls-7" cx="278.75" cy="720.23" rx="7.11" ry="4.39" transform="translate(-470.25 908.51) rotate(-82.95)"/><ellipse class="cls-7" cx="320.16" cy="720.31" rx="3.47" ry="5.62" transform="translate(-73.24 37.24) rotate(-5.98)"/><ellipse class="cls-7" cx="301.66" cy="720.23" rx="5.62" ry="3.47" transform="translate(-429.24 995.04) rotate(-87.88)"/><ellipse class="cls-7" cx="251.63" cy="716.88" rx="7.11" ry="4.39" transform="translate(-490.71 878.65) rotate(-82.95)"/><ellipse class="cls-7" cx="263.9" cy="728.92" rx="6.26" ry="3.86" transform="translate(-491.89 901.39) rotate(-82.95)"/><ellipse class="cls-7" cx="243.87" cy="730.84" rx="7.17" ry="4.43" transform="translate(-511.37 883.19) rotate(-82.95)"/><ellipse class="cls-7" cx="224.95" cy="730.17" rx="5.52" ry="3.41" transform="translate(-527.3 863.83) rotate(-82.95)"/><ellipse class="cls-7" cx="209.29" cy="722.79" rx="7.29" ry="4.5" transform="translate(-533.71 841.81) rotate(-82.95)"/><ellipse class="cls-7" cx="192.19" cy="720.23" rx="5.89" ry="3.64" transform="translate(-546.18 822.6) rotate(-82.95)"/><ellipse class="cls-1" cx="87.6" cy="724.22" rx="80.79" ry="50.54" transform="translate(-156.94 36.93) rotate(-12.69)"/><ellipse class="cls-1" cx="485.33" cy="724.93" rx="50.54" ry="80.79" transform="translate(-364.87 920.46) rotate(-69.15)"/><path d="M275.08,652.19c-9.79-1.52-16.07-13.38-14-26.48s10.41-12.37,20.21-10.84,17.29,3.26,15.25,16.36S284.87,653.71,275.08,652.19Z"/></g></g></svg>