<svg xmlns="http://www.w3.org/2000/svg" viewBox="0 0 570.96 776.99"><defs><style>.cls-1{fill:#31aadd;stroke-width:16px;}.cls-1,.cls-2,.cls-3,.cls-4{stroke:#000;stroke-miterlimit:10;}.cls-3{fill:#fff;}.cls-4{fill:#e42527;stroke-width:7px;}.cls-5{fill:#68af23;}.cls-6{fill:#e95e45;}.cls-7{fill:#333;}</style></defs><title>watermelon</title><g id="Слой_2" data-name="Слой 2"><g id="Слой_1-2" data-name="Слой 1"><path class="cls-1" d="M43.2,601.29C12.76,524.18,35.29,449.94,39.83,435c4.68-15.42,9.93-27.18,16.85-42.7,20.62-46.2,39-77.41,69.66-115.73,37.93-47.33,63.46-90,86.52-126.52,13.76-21.8,48.3-148,57.77-141.83,2.62,1.71,14.49,41.19,16.7,56.58,0,0,8.76,41.23,16.55,89.3,5.8,35.78,29.91,62.8,77.23,110.11,52.91,52.91,63.54,63,86.82,86.52,19.9,20.15,57.56,71.74,65.17,143.82,1.5,14.22,9.06,98.65-46.63,170.22-71.09,91.36-203.92,108.66-300.56,71.35C162.17,727,78.41,690.5,43.2,601.29Z"/><path class="cls-2" d="M430.35,524.41c0,24-19.47,9.64-43.5,9.64s-43.5,14.38-43.5-9.64a43.5,43.5,0,0,1,87,0Z"/><circle class="cls-3" cx="420.44" cy="527.03" r="6.59"/><circle class="cls-3" cx="371.75" cy="509.24" r="17.8"/><path class="cls-2" d="M209.11,519.71c0,24-19.47,9.64-43.5,9.64s-43.5,14.38-43.5-9.64a43.5,43.5,0,0,1,87,0Z"/><circle class="cls-3" cx="199.2" cy="522.33" r="6.59"/><circle class="cls-3" cx="150.51" cy="504.53" r="17.8"/><path class="cls-4" d="M96.87,630.09c4.85,23.18,19.43,75.39,65.7,108.82a159.77,159.77,0,0,0,35.07,18.89c56.13,22.8,103.14,15.17,121,11.21,27-6,80-19.73,115.47-63.37,23.66-29.09,31.32-60.09,34.16-77.34l-112.14-2.17-87.49-5a101.58,101.58,0,0,0-15.65.32l-49.64,4.87q-4.3-.24-8.61-.07Z"/><path class="cls-5" d="M100.53,632.89c1.51,4.86,3.05,9.68,4.87,14.38a149.55,149.55,0,0,0,21.63,39c12.05,15.58,27.16,28.58,43.58,39.07a155.37,155.37,0,0,0,25.95,13.07c2.27.91,4.64,1.79,6.91,2.64s4.61,1.65,6.92,2.46c4.65,1.51,9.33,2.95,14.06,4.14A206.21,206.21,0,0,0,253.2,753a198.84,198.84,0,0,0,29.15,1.3,187.4,187.4,0,0,0,29-2.92c2.4-.43,4.73-.88,7.17-1.41s4.86-1.06,7.27-1.62q7.23-1.69,14.33-3.71a218.49,218.49,0,0,0,54-22.83,165.37,165.37,0,0,0,23.56-17.3c3.68-3.22,7.16-6.65,10.51-10.22l2.48-2.71,2.45-2.8c1.67-1.85,3.25-3.76,4.82-5.68s3.05-3.9,4.62-5.83l2.2-3,1.1-1.5,1-1.53a118.37,118.37,0,0,0,7.72-12.67c4.73-8.72,7.81-18.34,10.38-28.19a130.22,130.22,0,0,1-1.79,15.22,100.73,100.73,0,0,1-4.07,15,109.29,109.29,0,0,1-6.34,14.24l-.9,1.73-1,1.69-1.93,3.38-2,3.31q-1,1.66-2.11,3.27c-1.43,2.16-2.87,4.31-4.39,6.4l-2.27,3.15-2.42,3.09a145,145,0,0,1-10.44,11.77c-3.71,3.71-7.55,7.31-11.61,10.64s-8.27,6.49-12.6,9.46c-17.38,11.85-36.76,20.41-56.62,26.6-5,1.54-10,2.91-15,4.19q-3.76.95-7.52,1.82c-2.5.59-5.13,1.16-7.71,1.65a201.53,201.53,0,0,1-31.42,3.35,213,213,0,0,1-31.49-1.59,215.34,215.34,0,0,1-30.83-6.37c-5-1.43-10-3.11-14.94-4.88s-9.78-3.79-14.49-5.9a156,156,0,0,1-27.58-15.51c-2.16-1.52-4.29-3.12-6.32-4.74s-4.06-3.3-6.06-5c-3.94-3.44-7.77-7-11.42-10.77s-7.06-7.73-10.31-11.83a147.39,147.39,0,0,1-9-12.81,138.77,138.77,0,0,1-7.48-13.7,133.44,133.44,0,0,1-5.79-14.4A150,150,0,0,1,103,648C101.94,643,101.09,637.94,100.53,632.89Z"/><path class="cls-6" d="M399.93,708.36c0,21.46-52.09,38.86-116.34,38.86s-128-20.85-116.34-38.86c7.19-11.11,52.09,10.3,116.34,10.3S399.93,698.82,399.93,708.36Z"/><ellipse class="cls-7" cx="310.75" cy="682.74" rx="3.6" ry="5.82"/><ellipse class="cls-7" cx="332.72" cy="682.74" rx="3.6" ry="5.82" transform="translate(-69.26 38.34) rotate(-5.98)"/><ellipse class="cls-7" cx="351.05" cy="682.74" rx="3.6" ry="5.82" transform="translate(-141.4 93.79) rotate(-12.69)"/><ellipse class="cls-7" cx="369.54" cy="676.92" rx="4.39" ry="7.11" transform="translate(-139.66 97.7) rotate(-12.69)"/><ellipse class="cls-7" cx="287.04" cy="682.74" rx="7.11" ry="4.39" transform="translate(-425.76 883.84) rotate(-82.95)"/><ellipse class="cls-7" cx="278.45" cy="671.16" rx="7.11" ry="4.39" transform="translate(-421.8 865.15) rotate(-82.95)"/><ellipse class="cls-7" cx="319.86" cy="671.23" rx="3.47" ry="5.62" transform="translate(-68.14 36.94) rotate(-5.98)"/><ellipse class="cls-7" cx="301.36" cy="671.16" rx="5.62" ry="3.47" transform="translate(-380.48 947.48) rotate(-87.88)"/><ellipse class="cls-7" cx="251.33" cy="667.8" rx="7.11" ry="4.39" transform="translate(-442.27 835.29) rotate(-82.95)"/><ellipse class="cls-7" cx="263.6" cy="679.85" rx="6.26" ry="3.86" transform="translate(-443.45 858.04) rotate(-82.95)"/><ellipse class="cls-7" cx="243.57" cy="681.76" rx="7.17" ry="4.43" transform="translate(-462.93 839.84) rotate(-82.95)"/><ellipse class="cls-7" cx="224.65" cy="681.09" rx="5.52" ry="3.41" transform="translate(-478.86 820.47) rotate(-82.95)"/><ellipse class="cls-7" cx="208.99" cy="673.71" rx="7.29" ry="4.5" transform="translate(-485.27 798.46) rotate(-82.95)"/><ellipse class="cls-7" cx="191.89" cy="671.16" rx="5.89" ry="3.64" transform="translate(-497.74 779.25) rotate(-82.95)"/><ellipse class="cls-1" cx="87.6" cy="702.08" rx="80.79" ry="50.54" transform="translate(-152.08 36.39) rotate(-12.69)"/><ellipse class="cls-1" cx="485.33" cy="702.79" rx="50.54" ry="80.79" transform="translate(-344.18 906.21) rotate(-69.15)"/><path d="M277.18,602.44c-12.29-1.91-20.18-16.8-17.62-33.25s13.08-15.53,25.37-13.62,21.71,4.09,19.15,20.54S289.47,604.36,277.18,602.44Z"/></g></g></svg>