<?xml version="1.0" encoding="utf-8"?><svg width="102" height="84" viewBox="0 0 102 84" xmlns="http://www.w3.org/2000/svg" xmlns:xlink="http://www.w3.org/1999/xlink"><svg viewBox="-12.76 -12.76 433.87 268.06" width="34" height="21.01" id="arrow" xmlns="http://www.w3.org/2000/svg"><defs><style>.acls-1{fill:#fff}</style></defs><g id="aСлой_2" data-name="Слой 2"><path class="acls-1" d="M204.12 0L0 204.12l38.42 38.42 165.99-166 165.82 165.82 38.12-38.12L204.12 0z" id="aСлой_1-2" data-name="Слой 1"/></g></svg><svg viewBox="-9.09 -9.09 309.11 309.11" width="34" height="34" id="close_icon" y="21.01" xmlns="http://www.w3.org/2000/svg"><defs><style>.bcls-1{fill:#191919}.bcls-2{fill:none;stroke:#666;stroke-miterlimit:10;stroke-width:6px}</style></defs><g id="bСлой_2" data-name="Слой 2"><g id="bСлой_1-2" data-name="Слой 1"><path class="bcls-1" transform="rotate(45 145.463 145.473)" d="M111.2-19.98h68.54v330.9H111.2z"/><path class="bcls-1" transform="rotate(-45 145.473 145.463)" d="M111.2-19.98h68.54v330.9H111.2z"/><path class="bcls-2" d="M52.71 4.24L145.47 97l92.75-92.76 48.47 48.47-92.76 92.76 92.76 92.75-48.47 48.47-92.75-92.76-92.76 92.76-48.47-48.47L97 145.47 4.24 52.71 52.71 4.24z"/></g></g></svg><svg viewBox="-10.23 -10.23 347.97 347.55" width="34" height="33.96" id="facebook" x="34" xmlns="http://www.w3.org/2000/svg"><defs><style>.ccls-1{fill:#3b579d}</style></defs><g id="cСлой_2" data-name="Слой 2"><path class="ccls-1" d="M162.17 327.08h-119A43.17 43.17 0 0 1 0 283.92V43.17A43.17 43.17 0 0 1 43.17 0h241.16a43.17 43.17 0 0 1 43.17 43.17v240.75a43.17 43.17 0 0 1-43.17 43.17H213V209.75h40.71a7.59 7.59 0 0 0 7.54-6.74l4.25-38a6.9 6.9 0 0 0-6.9-6.9h-46.1v-34.76a21.27 21.27 0 0 1 21.27-21.27h23.58a6.31 6.31 0 0 0 6.31-6.31v-33a6.23 6.23 0 0 0-6.23-6.23H220a58.17 58.17 0 0 0-58.17 58.17v43.33h-30.12a6.71 6.71 0 0 0-6.71 6.71v38.35a6.77 6.77 0 0 0 6.77 6.77H162z" id="cСлой_1-2" data-name="Слой 1"/></g></svg><svg id="handler" width="22" height="22" viewBox="-1 -1 22 22" x="34" y="55.010000000000005" xmlns="http://www.w3.org/2000/svg"><style>.dst0{fill:#333}</style><path class="dst0" d="M3.3 6.1h1.3v7.6H3.3zM16.4 6.1h1.3v7.6h-1.3zM13.1 2.4h1.3v15.3h-1.3zM6.7 2.4H8v15.3H6.7z"/></svg><svg viewBox="-12.12 -12.12 412.25 412.25" width="34" height="34" id="linkendin" x="68" xmlns="http://www.w3.org/2000/svg"><defs><style>.ecls-1{fill:#0073b0}.ecls-2{fill:#fff}</style></defs><g id="eСлой_2" data-name="Слой 2"><g id="eСлой_1-2" data-name="Слой 1"><rect class="ecls-1" width="388" height="388" rx="50.83" ry="50.83"/><rect class="ecls-2" x="55.5" y="141.75" width="65" height="204" rx="13.44" ry="13.44"/><path class="ecls-2" d="M159.58 141.75h41.5a11.58 11.58 0 0 1 11.58 11.58v13.17l1.46-1.89a65 65 0 0 1 51.43-25.28h7.7c51.42 0 74.25 33.24 74.25 74.25v121.09a10.67 10.67 0 0 1-10.67 10.67h-44.66a10.67 10.67 0 0 1-10.67-10.67V227.75A33.75 33.75 0 0 0 247.75 194 33.75 33.75 0 0 0 214 227.75v107.33a10.67 10.67 0 0 1-10.67 10.67h-44.66A10.67 10.67 0 0 1 148 335.08V153.33a11.58 11.58 0 0 1 11.58-11.58z"/><circle class="ecls-2" cx="88" cy="84.67" r="42"/></g></g></svg><svg id="logoMr_drop" width="34" height="13.64" viewBox="-6.87 -6.87 233.75 93.75" x="68" y="34" xmlns="http://www.w3.org/2000/svg"><style>.fst0{display:none}.fst1{fill:none;stroke-width:3}.fst1,.fst2{stroke:#fff;stroke-miterlimit:10}.fst2,.fst3{fill:#fff}</style><path class="fst0" d="M0 0h220v80H0z"/><path class="fst1" d="M173.1 66.2c-2.9 2.2-8.7 4.1-10 2.3s.4-5.6 3.4-7.8M202.5 59.6c2.1 3 4 8.7 2.1 10.1-1.9 1.3-5.6-.5-7.8-3.5"/><path class="fst1" d="M165.1 56.2c-2.5-6.3-.7-12.4-.3-13.7.4-1.2.8-2.4 1.4-3.5 1.7-3.8 3.4-6.5 5.7-9.8 6.1-8.7 5-7.1 7.1-10 1.2-1.6 7.4-9.9 8.2-9.4.2.1-.1.9-.5 2.1-.6 2.5-.6 5-.3 7.5.5 2.9 2.5 5.2 6.4 9l7.1 7.1c1.6 1.7 4.7 5.9 5.4 11.8.1 1.2.7 8.1-3.8 14-5.8 7.5-16.8 8.9-24.7 5.9-1.9-.7-8.8-3.7-11.7-11z"/><path class="fst2" d="M185.6 54.8c.2.1.4.3.4.6.3.6-1.8 2.7-3.7 2.7-2.4 0-4.3-2.5-3.3-3.3.7-.5 1.5 2.3 3.3 2.3s2.6-2.7 3.3-2.3z"/><path class="fst2" d="M191.8 54.8c.2.1.4.3.4.6.3.6-1.8 2.7-3.7 2.7-2.4 0-4.3-2.5-3.3-3.3.7-.5 1.5 2.3 3.3 2.3s2.6-2.7 3.3-2.3z"/><circle class="fst3" cx="194.6" cy="48.2" r="3.6"/><circle class="fst3" cx="175.2" cy="48.3" r="3.6"/><path class="fst3" d="M29.4 36c.8-1.3 2.3-2 3.8-2 2.5 0 4.4 1.9 4.4 4.3v12.4c0 1.7-1.5 3.1-3.3 3.1S31 52.4 31 50.7v-7.2s-2.2 3.3-3.3 4.9c-.4.6-1 .9-1.7.9s-1.3-.3-1.7-.8L21 44v6.7c0 1.7-1.4 3.1-3.3 3.1-1.8 0-3.2-1.3-3.2-3.1V38.3c0-2.4 2-4.3 4.4-4.3 1.5 0 2.9.8 3.8 2l3.3 5.3s.2-.4.7-1.1l2.7-4.2zM58.4 49.1c.3.5.5 1 .5 1.6 0 1.6-1.3 3.1-3 3.1-1 0-2-.5-2.6-1.3l-3-4.4h-3.5v2.5c0 1.8-1.4 3.2-3.3 3.2-1.8 0-3.3-1.4-3.3-3.2V37.3c0-1.8 1.4-3.2 3.3-3.2h6.7c3.7 0 6 .9 7.4 2.3 1.3 1.2 1.8 2.6 1.8 4.6 0 2.4-1.1 4.2-3 5.5l2 2.6zM50 43.7c1.8 0 2.9-.8 2.9-2.1 0-1.5-1.1-2.1-2.8-2.1h-3.2v4.3l3.1-.1zM76.6 34.1c8.2 0 12.2 3.9 12.2 9.7 0 5.9-4.2 10-12.5 10H72c-1.8 0-3.3-1.4-3.3-3.1V37.2c0-1.7 1.4-3.1 3.3-3.1h4.6zm.1 14.2c3.3 0 5.4-1.3 5.4-4.3 0-3.1-2.1-4.4-5.4-4.4h-1.3v8.7h1.3zM109.2 49.1c.3.5.5 1 .5 1.6 0 1.6-1.3 3.1-3 3.1-1 0-2-.5-2.6-1.3l-3-4.4h-3.5v2.5c0 1.8-1.4 3.2-3.3 3.2S91 52.4 91 50.6V37.3c0-1.8 1.4-3.2 3.3-3.2h6.7c3.7 0 6 .9 7.4 2.3 1.3 1.2 1.8 2.6 1.8 4.6 0 2.4-1.1 4.2-3 5.5l2 2.6zm-8.5-5.4c1.8 0 2.9-.8 2.9-2.1 0-1.5-1.1-2.1-2.8-2.1h-3.2v4.3l3.1-.1zM111.6 44c0-5.7 4.9-10.2 11.2-10.2S134 38.1 134 44c0 5.7-4.9 10.2-11.2 10.2s-11.2-4.4-11.2-10.2zm15.8 0c0-2.5-1.8-4.7-4.5-4.7-2.8 0-4.5 2.2-4.5 4.7s1.8 4.7 4.6 4.7c2.6 0 4.4-2.2 4.4-4.7zM145.3 34.1c5.4 0 9.1 2.3 9.1 7s-3.8 7.3-9.3 7.3h-2.4v2.3c0 1.8-1.5 3.2-3.3 3.2s-3.3-1.4-3.3-3.2V37.3c0-1.8 1.5-3.2 3.3-3.2h5.9zm-.5 9.8c1.9 0 3.2-.8 3.2-2.4 0-1.6-1.1-2.4-3.1-2.4h-2.1v4.8h2z"/></svg><svg viewBox="-8.66 -8.66 294.31 242.43" width="34" height="28.01" id="twitter" y="55.010000000000005" xmlns="http://www.w3.org/2000/svg"><defs><style>.gcls-1{fill:#1da1f2}</style></defs><g id="gСлой_2" data-name="Слой 2"><path class="gcls-1" d="M87.11 225.12c104.53 0 161.7-86.6 161.7-161.7q0-3.69-.16-7.35A115.57 115.57 0 0 0 277 26.65a113.32 113.32 0 0 1-32.64 8.95 57 57 0 0 0 25-31.43A114 114 0 0 1 233.27 18a56.88 56.88 0 0 0-96.84 51.83A161.37 161.37 0 0 1 19.28 10.4a56.88 56.88 0 0 0 17.6 75.87 56.41 56.41 0 0 1-25.74-7.11v.73a56.85 56.85 0 0 0 45.58 55.71 56.74 56.74 0 0 1-25.67 1A56.89 56.89 0 0 0 84.14 176a114 114 0 0 1-70.58 24.33A115.43 115.43 0 0 1 0 199.59a160.87 160.87 0 0 0 87.12 25.53" id="gСлой_1-2" data-name="Слой 1"/></g></svg></svg>