<svg xmlns="http://www.w3.org/2000/svg" viewBox="0 0 327.5 327.08"><defs><style>.cls-1{fill:#3b579d;}</style></defs><title>facebook_icon</title><g id="Слой_2" data-name="Слой 2"><g id="Слой_1-2" data-name="Слой 1"><path class="cls-1" d="M162.17,327.08h-119A43.17,43.17,0,0,1,0,283.92V43.17A43.17,43.17,0,0,1,43.17,0H284.33A43.17,43.17,0,0,1,327.5,43.17V283.92a43.17,43.17,0,0,1-43.17,43.17H213V209.75h40.71a7.59,7.59,0,0,0,7.54-6.74l4.25-38a6.9,6.9,0,0,0-6.9-6.9H212.5V123.35a21.27,21.27,0,0,1,21.27-21.27h23.58a6.31,6.31,0,0,0,6.31-6.31v-33a6.23,6.23,0,0,0-6.23-6.23H220a58.17,58.17,0,0,0-58.17,58.17v43.33H131.71a6.71,6.71,0,0,0-6.71,6.71v38.35a6.77,6.77,0,0,0,6.77,6.77H162Z"/></g></g></svg>