<svg xmlns="http://www.w3.org/2000/svg" viewBox="0 0 388 388"><defs><style>.cls-1{fill:#0073b0;}.cls-2{fill:#fff;}</style></defs><title>in_icon</title><g id="Слой_2" data-name="Слой 2"><g id="Слой_1-2" data-name="Слой 1"><rect class="cls-1" width="388" height="388" rx="50.83" ry="50.83"/><rect class="cls-2" x="55.5" y="141.75" width="65" height="204" rx="13.44" ry="13.44"/><path class="cls-2" d="M159.58,141.75h41.5a11.58,11.58,0,0,1,11.58,11.58V166.5l1.46-1.89a65,65,0,0,1,51.43-25.28h7.7c51.42,0,74.25,33.24,74.25,74.25V334.67a10.67,10.67,0,0,1-10.67,10.67H292.17a10.67,10.67,0,0,1-10.67-10.67V227.75A33.75,33.75,0,0,0,247.75,194h0A33.75,33.75,0,0,0,214,227.75V335.08a10.67,10.67,0,0,1-10.67,10.67H158.67A10.67,10.67,0,0,1,148,335.08V153.33A11.58,11.58,0,0,1,159.58,141.75Z"/><circle class="cls-2" cx="88" cy="84.67" r="42"/></g></g></svg>