<svg xmlns="http://www.w3.org/2000/svg" viewBox="0 0 277 225.12"><defs><style>.cls-1{fill:#1da1f2;}</style></defs><title>twitter_icon</title><g id="Слой_2" data-name="Слой 2"><g id="Слой_1-2" data-name="Слой 1"><path class="cls-1" d="M87.11,225.12c104.53,0,161.7-86.6,161.7-161.7q0-3.69-.16-7.35A115.57,115.57,0,0,0,277,26.65a113.32,113.32,0,0,1-32.64,8.95,57,57,0,0,0,25-31.43A114,114,0,0,1,233.27,18a56.88,56.88,0,0,0-96.84,51.83A161.37,161.37,0,0,1,19.28,10.4a56.88,56.88,0,0,0,17.6,75.87,56.41,56.41,0,0,1-25.74-7.11c0,.24,0,.47,0,.73A56.85,56.85,0,0,0,56.72,135.6a56.74,56.74,0,0,1-25.67,1A56.89,56.89,0,0,0,84.14,176a114,114,0,0,1-70.58,24.33A115.43,115.43,0,0,1,0,199.59a160.87,160.87,0,0,0,87.12,25.53"/></g></g></svg>